<svg width="200" height="200" viewBox="0 0 200 200" fill="none" xmlns="http://www.w3.org/2000/svg">
<path d="M180.776 115.912C181.299 113.308 182.157 110.783 183.328 108.4C186.528 101.848 188.828 96.116 186.792 88.8C181.804 70.932 161.516 68.844 151.508 55.368C136.036 34.544 98.0201 32.736 79.8601 50.732C74.2921 56.248 71.6841 64.04 66.0561 69.496C57.7641 77.54 45.4521 78.576 36.9361 86.596C23.0521 99.68 21.7041 121.852 34.0281 136.564C47.0441 152.1 65.4161 149.552 83.2601 146.248C92.0401 144.624 101.168 142.864 110.116 144.112C129.2 146.8 151.844 157.284 170.34 146.848C180.192 141.288 180.444 132.616 180.216 122.5C180.16 120.29 180.348 118.081 180.776 115.912Z" fill="#FF725E"/>
<path opacity="0.6" d="M180.776 115.912C181.299 113.308 182.157 110.783 183.328 108.4C186.528 101.848 188.828 96.116 186.792 88.8C181.804 70.932 161.516 68.844 151.508 55.368C136.036 34.544 98.0201 32.736 79.8601 50.732C74.2921 56.248 71.6841 64.04 66.0561 69.496C57.7641 77.54 45.4521 78.576 36.9361 86.596C23.0521 99.68 21.7041 121.852 34.0281 136.564C47.0441 152.1 65.4161 149.552 83.2601 146.248C92.0401 144.624 101.168 142.864 110.116 144.112C129.2 146.8 151.844 157.284 170.34 146.848C180.192 141.288 180.444 132.616 180.216 122.5C180.16 120.29 180.348 118.081 180.776 115.912Z" fill="white"/>
<path d="M103 170.4C145.305 170.4 179.6 163.147 179.6 154.2C179.6 145.253 145.305 138 103 138C60.6949 138 26.3999 145.253 26.3999 154.2C26.3999 163.147 60.6949 170.4 103 170.4Z" fill="#FF725E"/>
<path opacity="0.3" d="M103 170.4C145.305 170.4 179.6 163.147 179.6 154.2C179.6 145.253 145.305 138 103 138C60.6949 138 26.3999 145.253 26.3999 154.2C26.3999 163.147 60.6949 170.4 103 170.4Z" fill="white"/>
<path d="M15.6201 45.656C15.5267 45.3185 15.5055 44.9651 15.5576 44.6189C15.6098 44.2726 15.7343 43.9412 15.9229 43.6462C16.1115 43.3512 16.3601 43.0992 16.6525 42.9065C16.9449 42.7139 17.2746 42.5849 17.6201 42.528C19.7121 42.244 22.2801 45.052 23.0961 46.752C23.1641 46.9 24.0001 49.324 23.9601 49.324C23.9201 49.324 20.2521 49.408 18.7601 48.744C17.4521 48.18 15.9681 47.104 15.6201 45.656ZM69.3481 39.2C69.0401 40.656 67.5841 41.772 66.3121 42.372C65.0401 42.972 62.0201 43.076 61.2801 43.088C60.8801 43.564 60.4521 44.08 59.9921 44.656C59.1921 45.68 58.3041 46.844 57.4241 48.172C57.1881 48.528 56.9481 48.916 56.7081 49.292C57.2441 48.744 57.9841 48.004 58.0641 47.94C59.5401 46.768 63.0761 45.364 64.8321 46.532C65.1186 46.7335 65.3595 46.9932 65.5391 47.294C65.7187 47.5948 65.833 47.93 65.8745 48.2779C65.916 48.6257 65.8838 48.9784 65.78 49.3131C65.6762 49.6477 65.5031 49.9567 65.2721 50.22C64.3241 51.372 62.5201 51.692 61.1121 51.636C59.7041 51.58 56.8921 50.24 56.2921 49.94C55.7761 50.776 55.2641 51.648 54.7841 52.588C53.8903 54.2825 53.1501 56.0535 52.5721 57.88L52.6801 57.932C53.1081 57.368 54.0401 56.204 54.1281 56.12C55.4641 54.788 58.8281 53.008 60.7041 53.972C61.0075 54.142 61.2721 54.3736 61.481 54.6517C61.6899 54.9299 61.8384 55.2485 61.9171 55.5874C61.9958 55.9262 62.0029 56.2777 61.9379 56.6195C61.873 56.9612 61.7375 57.2856 61.5401 57.572C60.7401 58.824 58.9681 59.34 57.5641 59.436C55.9641 59.552 52.6001 58.288 52.4721 58.236C51.9529 60.0657 51.5521 61.9268 51.2721 63.808C51.0561 65.2 50.8921 66.608 50.7401 68.044C51.0321 67.644 52.2561 66.112 52.3401 66.012C53.6761 64.684 57.0401 62.9 58.9121 63.868C59.2192 64.037 59.4873 64.2689 59.6989 64.5484C59.9104 64.828 60.0608 65.149 60.14 65.4905C60.2192 65.832 60.2257 66.1864 60.1588 66.5306C60.092 66.8747 59.9534 67.201 59.7521 67.488C58.9521 68.736 57.1801 69.252 55.7761 69.348C54.1961 69.46 50.9761 68.264 50.7121 68.148C50.6441 68.796 50.5761 69.44 50.5121 70.092C50.3041 72.208 50.1121 74.336 49.8481 76.428C49.7561 77.152 49.6441 77.864 49.5321 78.576C49.9881 77.984 50.8361 76.924 50.9201 76.84C52.2561 75.512 55.6201 73.728 57.4961 74.696C57.8 74.8656 58.065 75.0969 58.2743 75.375C58.4835 75.6531 58.6322 75.9719 58.711 76.3109C58.7897 76.6499 58.7966 77.0017 58.7314 77.3435C58.6661 77.6854 58.5301 78.0098 58.3321 78.296C57.5321 79.544 55.7601 80.06 54.3561 80.16C52.9521 80.26 50.2241 79.312 49.4601 79.032C49.2641 80.232 49.0601 81.388 48.7721 82.528C48.6441 83.02 48.5481 83.528 48.3961 83.992L47.9961 85.388C47.6761 86.332 47.3841 87.208 47.0641 88.08C46.9041 88.52 46.7481 88.932 46.5881 89.36C46.9601 88.688 47.5681 87.64 47.6321 87.548C48.7521 86.032 51.8041 83.764 53.8041 84.436C54.1334 84.5559 54.4337 84.744 54.6854 84.9879C54.9371 85.2319 55.1345 85.5261 55.2648 85.8515C55.395 86.1769 55.4551 86.5261 55.4412 86.8764C55.4273 87.2266 55.3397 87.5699 55.1841 87.884C54.5681 89.244 52.9081 90.02 51.5321 90.328C50.0201 90.672 46.7721 90.012 46.3761 89.928C45.9761 90.972 45.5761 91.98 45.2001 92.92C44.0001 95.892 42.8601 98.324 42.0481 100.016L41.9161 100.288H47.8321L45.7881 140.128C45.7321 141.601 45.1066 142.995 44.0433 144.015C42.98 145.036 41.562 145.604 40.0881 145.6C38.6284 145.601 37.2242 145.041 36.1656 144.036C35.107 143.031 34.4749 141.658 34.4001 140.2L32.3561 100.36H38.7081C38.6761 100.084 38.6441 99.792 38.6081 99.464C38.3961 97.624 38.0521 94.992 37.5001 91.864C37.3441 90.96 37.1641 90.004 36.9641 89.024C36.5641 89.076 33.2761 89.492 31.7921 89.024C30.4481 88.624 28.8481 87.712 28.3361 86.312C28.2048 85.9872 28.1434 85.6384 28.1559 85.2884C28.1683 84.9383 28.2543 84.5947 28.4082 84.2801C28.5621 83.9654 28.7806 83.6867 29.0493 83.462C29.3181 83.2373 29.6311 83.0717 29.9681 82.976C32.0121 82.452 34.8881 84.948 35.8921 86.54C35.9561 86.644 36.5761 87.936 36.8801 88.604C36.7601 88.012 36.6441 87.424 36.5081 86.808C36.3161 85.924 36.1081 84.996 35.8721 84.092C35.7441 83.628 35.6121 83.16 35.4721 82.688C35.3321 82.216 35.1721 81.768 35.0241 81.296C34.7921 80.616 34.5161 79.924 34.2241 79.232C33.3361 79.48 30.7121 80.156 29.3641 79.96C28.0161 79.764 26.2521 79.112 25.5361 77.808C25.3566 77.5067 25.2426 77.171 25.2016 76.8227C25.1606 76.4744 25.1934 76.1214 25.2979 75.7866C25.4025 75.4519 25.5764 75.1429 25.8083 74.8799C26.0403 74.6168 26.325 74.4056 26.6441 74.26C28.5841 73.432 31.8041 75.46 33.0441 76.888C33.0841 76.932 33.3161 77.26 33.5841 77.652C33.2961 76.988 33.0121 76.32 32.7001 75.652C31.8121 73.764 30.8481 71.864 29.9001 69.96C29.7001 69.56 29.5001 69.16 29.3081 68.76C28.5601 68.972 25.7081 69.732 24.3121 69.528C22.9161 69.324 21.2001 68.68 20.4841 67.372C20.3076 67.0708 20.1962 66.736 20.1572 66.3891C20.1182 66.0422 20.1524 65.691 20.2576 65.3581C20.3627 65.0253 20.5366 64.7182 20.7678 64.4567C20.999 64.1952 21.2826 63.9851 21.6001 63.84C23.5401 63.016 26.7601 65.04 28.0001 66.472C28.0441 66.52 28.3201 66.912 28.6201 67.356C28.1161 66.312 27.6241 65.268 27.1681 64.212C26.3806 62.4098 25.7125 60.5578 25.1681 58.668C24.9081 58.744 21.6001 59.704 20.0281 59.468C18.6361 59.268 16.9201 58.62 16.2041 57.316C16.0245 57.0149 15.9103 56.6794 15.869 56.3313C15.8277 55.9832 15.8602 55.6303 15.9643 55.2956C16.0685 54.9609 16.2419 54.6519 16.4735 54.3887C16.705 54.1255 16.9894 53.914 17.3081 53.768C19.2521 52.944 22.4721 54.968 23.7081 56.396C23.7961 56.5 24.7721 57.924 25.1041 58.448C25.1023 58.4254 25.1023 58.4026 25.1041 58.38C24.6148 56.5097 24.2935 54.5994 24.1441 52.672C23.997 50.9522 23.9489 49.2253 24.0001 47.5C24.0401 45.9 24.1721 44.436 24.3001 43.144C24.3761 42.444 24.4561 41.804 24.5401 41.208L24.5041 41.232C24.4681 41.256 23.7641 38.792 23.7361 38.632C23.4241 36.772 23.9201 33 25.7921 32.028C26.108 31.8757 26.4524 31.7917 26.8029 31.7812C27.1535 31.7708 27.5023 31.8342 27.8267 31.9673C28.1512 32.1005 28.444 32.3004 28.6861 32.5542C28.9282 32.8079 29.1142 33.1097 29.2321 33.44C29.7761 34.828 29.1761 36.56 28.4321 37.764C27.6881 38.968 25.2321 40.716 24.6321 41.136C24.5601 41.756 24.4881 42.42 24.4241 43.136C24.3241 44.428 24.2241 45.888 24.2201 47.484C24.2201 47.912 24.2201 48.368 24.2401 48.812C24.3841 48.06 24.5961 47.036 24.6401 46.936C25.2201 45.144 27.3961 42.024 29.5081 42.028C29.8584 42.0382 30.2026 42.122 30.5184 42.2741C30.8342 42.4262 31.1144 42.643 31.3408 42.9105C31.5672 43.1781 31.7347 43.4903 31.8324 43.8269C31.9302 44.1634 31.9559 44.5168 31.9081 44.864C31.7561 46.348 30.4241 47.608 29.2201 48.34C28.0161 49.072 24.9161 49.524 24.2521 49.6C24.2841 50.584 24.3361 51.6 24.4561 52.64C24.6458 54.5454 25.0045 56.4301 25.5281 58.272H25.6481C25.6961 57.564 25.8321 56.08 25.8561 55.956C26.2561 54.112 28.0561 50.756 30.1561 50.544C30.5054 50.5158 30.8567 50.5614 31.1872 50.678C31.5177 50.7946 31.8199 50.9794 32.0743 51.2205C32.3286 51.4617 32.5293 51.7536 32.6633 52.0774C32.7973 52.4013 32.8616 52.7497 32.8521 53.1C32.8521 54.588 31.6801 55.992 30.5641 56.848C29.2761 57.836 25.7881 58.628 25.6561 58.656C26.2258 60.4724 26.914 62.2495 27.7161 63.976C28.3041 65.256 28.9481 66.532 29.6081 67.804C29.6321 67.304 29.8081 65.356 29.8361 65.216C30.2361 63.372 32.0361 60.016 34.1361 59.8C34.4852 59.7724 34.8363 59.8185 35.1665 59.9353C35.4967 60.0521 35.7987 60.237 36.0529 60.478C36.3071 60.719 36.5078 61.0107 36.642 61.3342C36.7762 61.6577 36.841 62.0058 36.8321 62.356C36.8321 63.848 35.6561 65.248 34.5401 66.104C33.2841 67.068 29.9481 67.844 29.6641 67.908C29.9641 68.484 30.2641 69.064 30.5681 69.64C31.5641 71.524 32.5681 73.404 33.5121 75.292C33.8361 75.948 34.1321 76.604 34.4321 77.26C34.4841 76.512 34.6121 75.16 34.6321 75.044C35.0321 73.2 36.8361 69.844 38.9321 69.628C39.2814 69.5998 39.6327 69.6454 39.9632 69.762C40.2937 69.8786 40.5959 70.0634 40.8503 70.3046C41.1046 70.5457 41.3053 70.8376 41.4393 71.1614C41.5733 71.4853 41.6376 71.8337 41.6281 72.184C41.6281 73.676 40.4561 75.076 39.3401 75.932C38.2241 76.788 35.4241 77.504 34.6361 77.696C35.1281 78.8 35.6001 79.88 36.0001 80.984C36.1641 81.464 36.3601 81.94 36.4921 82.408L36.9161 83.804C37.1681 84.768 37.4081 85.66 37.6241 86.564C37.7361 87.02 37.8281 87.452 37.9321 87.892C37.8721 87.132 37.8001 85.92 37.8041 85.808C37.9041 83.928 39.1961 80.348 41.2361 79.808C41.5772 79.7272 41.9315 79.7192 42.276 79.7845C42.6204 79.8497 42.9473 79.9868 43.2352 80.1869C43.5231 80.3869 43.7657 80.6453 43.9471 80.9453C44.1285 81.2453 44.2447 81.5801 44.2881 81.928C44.3162 82.1106 44.3283 82.2953 44.3241 82.48C45.1454 83.9186 45.5847 85.5435 45.6001 87.2C45.6001 87.32 45.4041 88.74 45.2881 89.464C45.5161 88.904 45.7401 88.348 45.9641 87.764C46.2961 86.92 46.6161 86.02 46.9361 85.148L47.3841 83.76C47.5441 83.292 47.6401 82.828 47.7841 82.352C47.9681 81.656 48.1201 80.924 48.2721 80.2C47.3961 79.912 44.8321 79.032 43.8161 78.124C42.8001 77.216 41.6921 75.7 41.8161 74.216C41.8332 73.866 41.9237 73.5236 42.0818 73.2109C42.2398 72.8982 42.4618 72.6222 42.7333 72.4008C43.0049 72.1794 43.3199 72.0176 43.6581 71.9258C43.9962 71.834 44.3498 71.8143 44.6961 71.868C46.7721 72.268 48.3401 75.72 48.5801 77.588C48.5801 77.648 48.6001 78.048 48.6081 78.524C48.7361 77.812 48.8681 77.096 48.9721 76.368C49.2761 74.304 49.5161 72.188 49.7721 70.072C49.8241 69.628 49.8841 69.188 49.9361 68.748C49.1961 68.512 46.4121 67.584 45.3481 66.632C44.2841 65.68 43.2241 64.208 43.3481 62.724C43.364 62.3736 43.4537 62.0305 43.6113 61.7172C43.769 61.4039 43.991 61.1274 44.2628 60.9057C44.5347 60.6841 44.8502 60.5224 45.1889 60.4311C45.5275 60.3398 45.8816 60.321 46.2281 60.376C48.3041 60.776 49.8681 64.228 50.1121 66.096C50.1121 66.16 50.1121 66.64 50.1401 67.176C50.2921 66.024 50.4601 64.884 50.6641 63.752C50.9959 61.8054 51.4597 59.8837 52.0521 58C51.7881 57.92 48.5041 56.896 47.3201 55.84C46.2681 54.9 45.1921 53.416 45.3201 51.932C45.336 51.5816 45.4257 51.2385 45.5833 50.9252C45.741 50.6119 45.963 50.3354 46.2348 50.1137C46.5067 49.8921 46.8222 49.7304 47.1609 49.6391C47.4995 49.5478 47.8536 49.529 48.2001 49.584C50.2721 49.984 51.8401 53.436 52.0841 55.304C52.0841 55.436 52.1281 57.164 52.1161 57.784C52.1161 57.76 52.1161 57.736 52.1361 57.716C52.761 55.8862 53.5468 54.1153 54.4841 52.424C55.3163 50.9058 56.2352 49.4367 57.2361 48.024C58.1521 46.708 59.0681 45.564 59.8921 44.556C60.3401 44.012 60.7601 43.524 61.1561 43.072H61.1121C61.0721 43.072 61.8441 40.624 61.9121 40.476C62.6801 38.756 65.1721 35.88 67.2681 36.104C67.6171 36.1516 67.9522 36.2725 68.2512 36.4589C68.5502 36.6452 68.8064 36.8927 69.0029 37.1852C69.1993 37.4776 69.3317 37.8084 69.3912 38.1556C69.4507 38.5029 69.436 38.8588 69.3481 39.2ZM45.1521 89.84C44.7921 89.668 42.0281 88.3 40.9481 87.128C40.0133 87.6372 39.0489 88.09 38.0601 88.484C38.3041 89.572 38.5361 90.632 38.7321 91.628C39.3561 94.78 39.7601 97.428 40.0161 99.288C40.0681 99.688 40.1161 100.036 40.1561 100.36H40.2961L40.7601 99.46C41.5961 97.808 42.7601 95.424 44.0321 92.504C44.4001 91.664 44.7761 90.768 45.1521 89.84ZM56.2081 49.56C56.2401 49.56 56.8801 47.1 56.9041 46.936C57.1641 45.072 56.5681 41.312 54.6681 40.392C54.3479 40.2485 54.0012 40.174 53.6504 40.1733C53.2996 40.1726 52.9525 40.2457 52.6319 40.388C52.3112 40.5302 52.024 40.7383 51.789 40.9988C51.5541 41.2593 51.3766 41.5664 51.2681 41.9C50.7601 43.3 51.4081 45.016 52.1721 46.196C53.0681 47.6 56.2041 49.56 56.2081 49.56Z" fill="#FF725E"/>
<path opacity="0.3" d="M15.6201 45.656C15.5267 45.3185 15.5055 44.9651 15.5576 44.6189C15.6098 44.2726 15.7343 43.9412 15.9229 43.6462C16.1115 43.3512 16.3601 43.0992 16.6525 42.9065C16.9449 42.7139 17.2746 42.5849 17.6201 42.528C19.7121 42.244 22.2801 45.052 23.0961 46.752C23.1641 46.9 24.0001 49.324 23.9601 49.324C23.9201 49.324 20.2521 49.408 18.7601 48.744C17.4521 48.18 15.9681 47.104 15.6201 45.656ZM69.3481 39.2C69.0401 40.656 67.5841 41.772 66.3121 42.372C65.0401 42.972 62.0201 43.076 61.2801 43.088C60.8801 43.564 60.4521 44.08 59.9921 44.656C59.1921 45.68 58.3041 46.844 57.4241 48.172C57.1881 48.528 56.9481 48.916 56.7081 49.292C57.2441 48.744 57.9841 48.004 58.0641 47.94C59.5401 46.768 63.0761 45.364 64.8321 46.532C65.1186 46.7335 65.3595 46.9932 65.5391 47.294C65.7187 47.5948 65.833 47.93 65.8745 48.2779C65.916 48.6257 65.8838 48.9784 65.78 49.3131C65.6762 49.6477 65.5031 49.9567 65.2721 50.22C64.3241 51.372 62.5201 51.692 61.1121 51.636C59.7041 51.58 56.8921 50.24 56.2921 49.94C55.7761 50.776 55.2641 51.648 54.7841 52.588C53.8903 54.2825 53.1501 56.0535 52.5721 57.88L52.6801 57.932C53.1081 57.368 54.0401 56.204 54.1281 56.12C55.4641 54.788 58.8281 53.008 60.7041 53.972C61.0075 54.142 61.2721 54.3736 61.481 54.6517C61.6899 54.9299 61.8384 55.2485 61.9171 55.5874C61.9958 55.9262 62.0029 56.2777 61.9379 56.6195C61.873 56.9612 61.7375 57.2856 61.5401 57.572C60.7401 58.824 58.9681 59.34 57.5641 59.436C55.9641 59.552 52.6001 58.288 52.4721 58.236C51.9529 60.0657 51.5521 61.9268 51.2721 63.808C51.0561 65.2 50.8921 66.608 50.7401 68.044C51.0321 67.644 52.2561 66.112 52.3401 66.012C53.6761 64.684 57.0401 62.9 58.9121 63.868C59.2192 64.037 59.4873 64.2689 59.6989 64.5484C59.9104 64.828 60.0608 65.149 60.14 65.4905C60.2192 65.832 60.2257 66.1864 60.1588 66.5306C60.092 66.8747 59.9534 67.201 59.7521 67.488C58.9521 68.736 57.1801 69.252 55.7761 69.348C54.1961 69.46 50.9761 68.264 50.7121 68.148C50.6441 68.796 50.5761 69.44 50.5121 70.092C50.3041 72.208 50.1121 74.336 49.8481 76.428C49.7561 77.152 49.6441 77.864 49.5321 78.576C49.9881 77.984 50.8361 76.924 50.9201 76.84C52.2561 75.512 55.6201 73.728 57.4961 74.696C57.8 74.8656 58.065 75.0969 58.2743 75.375C58.4835 75.6531 58.6322 75.9719 58.711 76.3109C58.7897 76.6499 58.7966 77.0017 58.7314 77.3435C58.6661 77.6854 58.5301 78.0098 58.3321 78.296C57.5321 79.544 55.7601 80.06 54.3561 80.16C52.9521 80.26 50.2241 79.312 49.4601 79.032C49.2641 80.232 49.0601 81.388 48.7721 82.528C48.6441 83.02 48.5481 83.528 48.3961 83.992L47.9961 85.388C47.6761 86.332 47.3841 87.208 47.0641 88.08C46.9041 88.52 46.7481 88.932 46.5881 89.36C46.9601 88.688 47.5681 87.64 47.6321 87.548C48.7521 86.032 51.8041 83.764 53.8041 84.436C54.1334 84.5559 54.4337 84.744 54.6854 84.9879C54.9371 85.2319 55.1345 85.5261 55.2648 85.8515C55.395 86.1769 55.4551 86.5261 55.4412 86.8764C55.4273 87.2266 55.3397 87.5699 55.1841 87.884C54.5681 89.244 52.9081 90.02 51.5321 90.328C50.0201 90.672 46.7721 90.012 46.3761 89.928C45.9761 90.972 45.5761 91.98 45.2001 92.92C44.0001 95.892 42.8601 98.324 42.0481 100.016L41.9161 100.288H47.8321L45.7881 140.128C45.7321 141.601 45.1066 142.995 44.0433 144.015C42.98 145.036 41.562 145.604 40.0881 145.6C38.6284 145.601 37.2242 145.041 36.1656 144.036C35.107 143.031 34.4749 141.658 34.4001 140.2L32.3561 100.36H38.7081C38.6761 100.084 38.6441 99.792 38.6081 99.464C38.3961 97.624 38.0521 94.992 37.5001 91.864C37.3441 90.96 37.1641 90.004 36.9641 89.024C36.5641 89.076 33.2761 89.492 31.7921 89.024C30.4481 88.624 28.8481 87.712 28.3361 86.312C28.2048 85.9872 28.1434 85.6384 28.1559 85.2884C28.1683 84.9383 28.2543 84.5947 28.4082 84.2801C28.5621 83.9654 28.7806 83.6867 29.0493 83.462C29.3181 83.2373 29.6311 83.0717 29.9681 82.976C32.0121 82.452 34.8881 84.948 35.8921 86.54C35.9561 86.644 36.5761 87.936 36.8801 88.604C36.7601 88.012 36.6441 87.424 36.5081 86.808C36.3161 85.924 36.1081 84.996 35.8721 84.092C35.7441 83.628 35.6121 83.16 35.4721 82.688C35.3321 82.216 35.1721 81.768 35.0241 81.296C34.7921 80.616 34.5161 79.924 34.2241 79.232C33.3361 79.48 30.7121 80.156 29.3641 79.96C28.0161 79.764 26.2521 79.112 25.5361 77.808C25.3566 77.5067 25.2426 77.171 25.2016 76.8227C25.1606 76.4744 25.1934 76.1214 25.2979 75.7866C25.4025 75.4519 25.5764 75.1429 25.8083 74.8799C26.0403 74.6168 26.325 74.4056 26.6441 74.26C28.5841 73.432 31.8041 75.46 33.0441 76.888C33.0841 76.932 33.3161 77.26 33.5841 77.652C33.2961 76.988 33.0121 76.32 32.7001 75.652C31.8121 73.764 30.8481 71.864 29.9001 69.96C29.7001 69.56 29.5001 69.16 29.3081 68.76C28.5601 68.972 25.7081 69.732 24.3121 69.528C22.9161 69.324 21.2001 68.68 20.4841 67.372C20.3076 67.0708 20.1962 66.736 20.1572 66.3891C20.1182 66.0422 20.1524 65.691 20.2576 65.3581C20.3627 65.0253 20.5366 64.7182 20.7678 64.4567C20.999 64.1952 21.2826 63.9851 21.6001 63.84C23.5401 63.016 26.7601 65.04 28.0001 66.472C28.0441 66.52 28.3201 66.912 28.6201 67.356C28.1161 66.312 27.6241 65.268 27.1681 64.212C26.3806 62.4098 25.7125 60.5578 25.1681 58.668C24.9081 58.744 21.6001 59.704 20.0281 59.468C18.6361 59.268 16.9201 58.62 16.2041 57.316C16.0245 57.0149 15.9103 56.6794 15.869 56.3313C15.8277 55.9832 15.8602 55.6303 15.9643 55.2956C16.0685 54.9609 16.2419 54.6519 16.4735 54.3887C16.705 54.1255 16.9894 53.914 17.3081 53.768C19.2521 52.944 22.4721 54.968 23.7081 56.396C23.7961 56.5 24.7721 57.924 25.1041 58.448C25.1023 58.4254 25.1023 58.4026 25.1041 58.38C24.6148 56.5097 24.2935 54.5994 24.1441 52.672C23.997 50.9522 23.9489 49.2253 24.0001 47.5C24.0401 45.9 24.1721 44.436 24.3001 43.144C24.3761 42.444 24.4561 41.804 24.5401 41.208L24.5041 41.232C24.4681 41.256 23.7641 38.792 23.7361 38.632C23.4241 36.772 23.9201 33 25.7921 32.028C26.108 31.8757 26.4524 31.7917 26.8029 31.7812C27.1535 31.7708 27.5023 31.8342 27.8267 31.9673C28.1512 32.1005 28.444 32.3004 28.6861 32.5542C28.9282 32.8079 29.1142 33.1097 29.2321 33.44C29.7761 34.828 29.1761 36.56 28.4321 37.764C27.6881 38.968 25.2321 40.716 24.6321 41.136C24.5601 41.756 24.4881 42.42 24.4241 43.136C24.3241 44.428 24.2241 45.888 24.2201 47.484C24.2201 47.912 24.2201 48.368 24.2401 48.812C24.3841 48.06 24.5961 47.036 24.6401 46.936C25.2201 45.144 27.3961 42.024 29.5081 42.028C29.8584 42.0382 30.2026 42.122 30.5184 42.2741C30.8342 42.4262 31.1144 42.643 31.3408 42.9105C31.5672 43.1781 31.7347 43.4903 31.8324 43.8269C31.9302 44.1634 31.9559 44.5168 31.9081 44.864C31.7561 46.348 30.4241 47.608 29.2201 48.34C28.0161 49.072 24.9161 49.524 24.2521 49.6C24.2841 50.584 24.3361 51.6 24.4561 52.64C24.6458 54.5454 25.0045 56.4301 25.5281 58.272H25.6481C25.6961 57.564 25.8321 56.08 25.8561 55.956C26.2561 54.112 28.0561 50.756 30.1561 50.544C30.5054 50.5158 30.8567 50.5614 31.1872 50.678C31.5177 50.7946 31.8199 50.9794 32.0743 51.2205C32.3286 51.4617 32.5293 51.7536 32.6633 52.0774C32.7973 52.4013 32.8616 52.7497 32.8521 53.1C32.8521 54.588 31.6801 55.992 30.5641 56.848C29.2761 57.836 25.7881 58.628 25.6561 58.656C26.2258 60.4724 26.914 62.2495 27.7161 63.976C28.3041 65.256 28.9481 66.532 29.6081 67.804C29.6321 67.304 29.8081 65.356 29.8361 65.216C30.2361 63.372 32.0361 60.016 34.1361 59.8C34.4852 59.7724 34.8363 59.8185 35.1665 59.9353C35.4967 60.0521 35.7987 60.237 36.0529 60.478C36.3071 60.719 36.5078 61.0107 36.642 61.3342C36.7762 61.6577 36.841 62.0058 36.8321 62.356C36.8321 63.848 35.6561 65.248 34.5401 66.104C33.2841 67.068 29.9481 67.844 29.6641 67.908C29.9641 68.484 30.2641 69.064 30.5681 69.64C31.5641 71.524 32.5681 73.404 33.5121 75.292C33.8361 75.948 34.1321 76.604 34.4321 77.26C34.4841 76.512 34.6121 75.16 34.6321 75.044C35.0321 73.2 36.8361 69.844 38.9321 69.628C39.2814 69.5998 39.6327 69.6454 39.9632 69.762C40.2937 69.8786 40.5959 70.0634 40.8503 70.3046C41.1046 70.5457 41.3053 70.8376 41.4393 71.1614C41.5733 71.4853 41.6376 71.8337 41.6281 72.184C41.6281 73.676 40.4561 75.076 39.3401 75.932C38.2241 76.788 35.4241 77.504 34.6361 77.696C35.1281 78.8 35.6001 79.88 36.0001 80.984C36.1641 81.464 36.3601 81.94 36.4921 82.408L36.9161 83.804C37.1681 84.768 37.4081 85.66 37.6241 86.564C37.7361 87.02 37.8281 87.452 37.9321 87.892C37.8721 87.132 37.8001 85.92 37.8041 85.808C37.9041 83.928 39.1961 80.348 41.2361 79.808C41.5772 79.7272 41.9315 79.7192 42.276 79.7845C42.6204 79.8497 42.9473 79.9868 43.2352 80.1869C43.5231 80.3869 43.7657 80.6453 43.9471 80.9453C44.1285 81.2453 44.2447 81.5801 44.2881 81.928C44.3162 82.1106 44.3283 82.2953 44.3241 82.48C45.1454 83.9186 45.5847 85.5435 45.6001 87.2C45.6001 87.32 45.4041 88.74 45.2881 89.464C45.5161 88.904 45.7401 88.348 45.9641 87.764C46.2961 86.92 46.6161 86.02 46.9361 85.148L47.3841 83.76C47.5441 83.292 47.6401 82.828 47.7841 82.352C47.9681 81.656 48.1201 80.924 48.2721 80.2C47.3961 79.912 44.8321 79.032 43.8161 78.124C42.8001 77.216 41.6921 75.7 41.8161 74.216C41.8332 73.866 41.9237 73.5236 42.0818 73.2109C42.2398 72.8982 42.4618 72.6222 42.7333 72.4008C43.0049 72.1794 43.3199 72.0176 43.6581 71.9258C43.9962 71.834 44.3498 71.8143 44.6961 71.868C46.7721 72.268 48.3401 75.72 48.5801 77.588C48.5801 77.648 48.6001 78.048 48.6081 78.524C48.7361 77.812 48.8681 77.096 48.9721 76.368C49.2761 74.304 49.5161 72.188 49.7721 70.072C49.8241 69.628 49.8841 69.188 49.9361 68.748C49.1961 68.512 46.4121 67.584 45.3481 66.632C44.2841 65.68 43.2241 64.208 43.3481 62.724C43.364 62.3736 43.4537 62.0305 43.6113 61.7172C43.769 61.4039 43.991 61.1274 44.2628 60.9057C44.5347 60.6841 44.8502 60.5224 45.1889 60.4311C45.5275 60.3398 45.8816 60.321 46.2281 60.376C48.3041 60.776 49.8681 64.228 50.1121 66.096C50.1121 66.16 50.1121 66.64 50.1401 67.176C50.2921 66.024 50.4601 64.884 50.6641 63.752C50.9959 61.8054 51.4597 59.8837 52.0521 58C51.7881 57.92 48.5041 56.896 47.3201 55.84C46.2681 54.9 45.1921 53.416 45.3201 51.932C45.336 51.5816 45.4257 51.2385 45.5833 50.9252C45.741 50.6119 45.963 50.3354 46.2348 50.1137C46.5067 49.8921 46.8222 49.7304 47.1609 49.6391C47.4995 49.5478 47.8536 49.529 48.2001 49.584C50.2721 49.984 51.8401 53.436 52.0841 55.304C52.0841 55.436 52.1281 57.164 52.1161 57.784C52.1161 57.76 52.1161 57.736 52.1361 57.716C52.761 55.8862 53.5468 54.1153 54.4841 52.424C55.3163 50.9058 56.2352 49.4367 57.2361 48.024C58.1521 46.708 59.0681 45.564 59.8921 44.556C60.3401 44.012 60.7601 43.524 61.1561 43.072H61.1121C61.0721 43.072 61.8441 40.624 61.9121 40.476C62.6801 38.756 65.1721 35.88 67.2681 36.104C67.6171 36.1516 67.9522 36.2725 68.2512 36.4589C68.5502 36.6452 68.8064 36.8927 69.0029 37.1852C69.1993 37.4776 69.3317 37.8084 69.3912 38.1556C69.4507 38.5029 69.436 38.8588 69.3481 39.2ZM45.1521 89.84C44.7921 89.668 42.0281 88.3 40.9481 87.128C40.0133 87.6372 39.0489 88.09 38.0601 88.484C38.3041 89.572 38.5361 90.632 38.7321 91.628C39.3561 94.78 39.7601 97.428 40.0161 99.288C40.0681 99.688 40.1161 100.036 40.1561 100.36H40.2961L40.7601 99.46C41.5961 97.808 42.7601 95.424 44.0321 92.504C44.4001 91.664 44.7761 90.768 45.1521 89.84ZM56.2081 49.56C56.2401 49.56 56.8801 47.1 56.9041 46.936C57.1641 45.072 56.5681 41.312 54.6681 40.392C54.3479 40.2485 54.0012 40.174 53.6504 40.1733C53.2996 40.1726 52.9525 40.2457 52.6319 40.388C52.3112 40.5302 52.024 40.7383 51.789 40.9988C51.5541 41.2593 51.3766 41.5664 51.2681 41.9C50.7601 43.3 51.4081 45.016 52.1721 46.196C53.0681 47.6 56.2041 49.56 56.2081 49.56Z" fill="white"/>
<path d="M169.444 63.704C169.444 63.704 165.532 66.696 164.992 69C164.452 71.304 165.148 73.756 165.608 75.216C166.068 76.676 166.144 83.736 161.848 86.88C157.552 90.024 155.632 93.172 156.092 97.088C156.552 101.004 162.384 105.3 167.22 106.288C172.056 107.276 178.884 105.06 181.568 99.304C184.252 93.548 180.648 87.2 178.652 83.6C176.656 80 176.812 76.616 179.052 76.464C181.292 76.312 182.428 76.864 182.508 73.7C182.588 70.536 181.816 65.644 177.748 63.188C173.68 60.732 169.444 63.704 169.444 63.704Z" fill="#2E353A" stroke="#2E353A" stroke-linecap="round" stroke-linejoin="round"/>
<path d="M159.812 102.304C160.212 102.572 163.812 104.04 166.476 99.904C169.14 95.768 165.512 91.956 166.212 88.304" stroke="white" stroke-width="0.5" stroke-miterlimit="10"/>
<path d="M173.82 68.464C173.82 68.464 172.572 64.432 175.276 65.74C178.176 67.14 180.476 73.74 179.476 75.24" stroke="white" stroke-width="0.5" stroke-miterlimit="10"/>
<path d="M173.076 67.94C173.076 67.94 171.576 65.04 172.576 63.74C173.576 62.44 175.876 63.94 177.076 64.84" stroke="white" stroke-width="0.5" stroke-miterlimit="10"/>
<path d="M176.476 75.84C176.476 75.84 176.876 77.64 175.676 81.24C174.476 84.84 172.276 88.94 174.476 92.74C176.676 96.54 178.376 99.14 175.876 102.94" stroke="white" stroke-width="0.5" stroke-miterlimit="10"/>
<path d="M176.476 77.94C176.563 80.2846 176.395 82.6316 175.976 84.94C175.276 88.94 177.476 91.54 179.776 94.04C182.076 96.54 181.476 98.64 180.676 100.94" stroke="white" stroke-width="0.5" stroke-miterlimit="10"/>
<path d="M172.976 68.54C172.976 68.54 168.276 68.94 166.876 68.34C165.476 67.74 165.776 67.24 165.776 67.24" stroke="white" stroke-width="0.5" stroke-miterlimit="10"/>
<path d="M173.6 84.516C173.6 84.516 174.212 90.732 174.996 94.328C175.78 97.924 177.028 102.464 176.716 103.716C176.404 104.968 169.516 115.604 169.516 115.604L167.484 114.196L171.708 101.524L168.152 89.644C168.152 89.644 171.408 84.872 173.6 84.516Z" fill="white" stroke="#2E353A" stroke-linecap="round" stroke-linejoin="round"/>
<path d="M173.052 83.504C172.052 82.352 169.904 79.36 169.904 79.36L166.528 75.36L161.848 68.916C161.232 68.072 159.16 68.376 153.176 68.456C147.192 68.536 129.028 65.08 129.028 65.08L128.416 69.08C128.416 69.08 145.04 72.68 149.26 73.08C153.48 73.48 157.396 74 157.396 74C156.82 75.1482 156.307 76.3273 155.86 77.532C155.4 78.912 150.028 86.28 150.028 86.28C150.028 86.28 149.896 86.36 149.668 86.512C149.608 87.848 149.736 90.684 151.732 92.18C153.276 93.336 155.536 93.824 157.168 94.028C157.196 93.936 157.22 93.856 157.24 93.8C157.472 93.184 159.16 92.264 160.08 92.2C161 92.136 163.84 92.276 165.532 92.124C167.224 91.972 168.14 89.668 168.14 89.668C168.14 89.668 171.868 86.028 173.584 84.54C173.478 84.1626 173.297 83.8103 173.052 83.504Z" fill="white" stroke="#2E353A" stroke-linecap="round" stroke-linejoin="round"/>
<path d="M159.52 74.928L157.396 73.988L158.94 76.444" stroke="#2E353A" stroke-width="0.75" stroke-linecap="round" stroke-linejoin="round"/>
<path d="M154.164 88.904C155.763 89.8958 157.654 90.3068 159.52 90.068" stroke="#2E353A" stroke-width="0.75" stroke-linecap="round" stroke-linejoin="round"/>
<path d="M152.4 86.108C152.4 86.108 152.748 87.508 154.964 88.44" stroke="#2E353A" stroke-width="0.75" stroke-linecap="round" stroke-linejoin="round"/>
<path d="M171.696 101.524C171.696 101.524 173.148 100.9 174.312 102.532" stroke="#2E353A" stroke-width="0.75" stroke-linecap="round" stroke-linejoin="round"/>
<path d="M172.1 90.652L168.14 89.644L171.632 92.4" stroke="#2E353A" stroke-width="0.75" stroke-linecap="round" stroke-linejoin="round"/>
<path d="M161.268 70.4C161.268 70.4 159.288 73.892 156.96 73.776C153.796 73.616 144.844 70.976 144.844 70.048C144.844 69.12 147.292 68.768 147.292 68.768" stroke="#2E353A" stroke-width="0.75" stroke-linecap="round" stroke-linejoin="round"/>
<path d="M168.14 73.296C168.14 73.296 166.54 72.896 165.376 73.604C164.212 74.312 161.156 80.972 161.156 80.972C161.156 80.972 161.384 81.28 162.308 81.28C163.232 81.28 163.46 82.508 163.46 83.656C163.46 84.804 163.38 85.344 163.764 85.256C164.148 85.168 166.452 84.336 166.912 84.644C167.372 84.952 166.296 86.484 166.512 86.644C166.728 86.804 168.66 84.876 169.276 82.804C169.892 80.732 170.504 77.664 170.348 76.436C170.192 75.208 169.2 73.6 168.14 73.296Z" fill="#FF725E" stroke="#2E353A" stroke-linecap="round" stroke-linejoin="round"/>
<path d="M169.444 79.668C168.599 80.6109 167.703 81.5069 166.76 82.352C164.992 83.952 163.536 85.116 163.612 84.352C163.688 83.588 165.452 79.44 165.912 77.152C166.372 74.864 167.22 73.312 168.14 73.312C169.06 73.312 171.056 78 169.444 79.668Z" fill="white" stroke="#2E353A" stroke-linecap="round" stroke-linejoin="round"/>
<path d="M168.524 69.768C168.585 69.9548 168.685 70.1266 168.818 70.272C168.95 70.4175 169.112 70.5333 169.292 70.612C169.828 70.764 173.82 68.464 173.82 68.464C173.82 68.464 176.66 74.524 176.196 75.444C175.732 76.364 174.356 77.52 172.82 78.592C171.284 79.664 168.448 80.512 167.372 79.896C166.296 79.28 167.064 72.992 167.064 72.992C167.064 72.992 166.22 71.992 167.14 70.38C168.06 68.768 168.524 69.768 168.524 69.768Z" fill="white" stroke="#2E353A" stroke-linecap="round" stroke-linejoin="round"/>
<path d="M174.952 76.028C174.952 76.028 175.02 75.552 174.132 75.552C173.244 75.552 171.684 77.184 171.684 77.184" stroke="#2E353A" stroke-width="0.75" stroke-linecap="round" stroke-linejoin="round"/>
<path d="M171.072 77.32L170.596 76.844" stroke="#2E353A" stroke-width="0.75" stroke-linecap="round" stroke-linejoin="round"/>
<path d="M170.4 78.208C170.4 78.208 169.176 78.004 168.972 76.436" stroke="#2E353A" stroke-width="0.75" stroke-linecap="round" stroke-linejoin="round"/>
<path d="M173.232 73.556C173.232 73.556 172.928 72.064 171.632 71.776" stroke="#2E353A" stroke-width="0.75" stroke-linecap="round" stroke-linejoin="round"/>
<path d="M171.692 74.356C171.38 74.6 171.036 74.68 170.92 74.532C170.804 74.384 170.96 74.068 171.268 73.824C171.576 73.58 171.924 73.5 172.04 73.648C172.156 73.796 172 74.112 171.692 74.356Z" fill="#2E353A"/>
<path d="M173.62 76.876C173.364 77.076 173.08 77.144 172.984 77.02C172.888 76.896 173.016 76.62 173.272 76.432C173.528 76.244 173.812 76.168 173.908 76.288C174.004 76.408 173.876 76.672 173.62 76.876Z" fill="#2E353A"/>
<path d="M166.152 142.188L170.076 147.64C170.076 147.64 170.076 148.64 168.676 148.64C167.276 148.64 166.476 148.64 165.676 147.64C164.876 146.64 164.876 146.04 164.076 145.64C163.276 145.24 162.476 145.24 162.876 143.04C163.276 140.84 166.152 142.188 166.152 142.188Z" fill="white" stroke="#2E353A" stroke-linecap="round" stroke-linejoin="round"/>
<path d="M170.06 147.764C169.439 148.062 168.741 148.166 168.06 148.06C166.644 147.804 165.784 146.388 165.26 145.78C164.736 145.172 164.096 145.176 163.492 144.668C163.205 144.423 162.954 144.137 162.748 143.82C162.664 145.244 163.356 145.292 164.044 145.64C164.844 146.04 164.844 146.64 165.644 147.64C166.444 148.64 167.244 148.64 168.644 148.64C169.768 148.64 170 148.032 170.06 147.764Z" fill="white" stroke="#2E353A" stroke-linecap="round" stroke-linejoin="round"/>
<path d="M165.928 141.496C165.128 139.096 163.988 124.728 163.396 120.18C162.196 110.932 156.86 98.928 156.86 98.928L157.168 94.016C155.536 93.812 153.276 93.324 151.732 92.168C149.732 90.672 149.608 87.836 149.668 86.5C148.656 87.152 145.668 89.116 143.12 91.18C139.976 93.712 137.824 102.692 137.212 105.528C136.6 108.364 135.908 116.728 135.908 116.728C135.908 116.728 130.38 118.876 128.156 121.928C125.932 124.98 119.176 131.904 119.176 131.904L119.792 134.208C119.792 134.208 121.864 132.752 123.628 131.368C125.392 129.984 139.132 122.312 140.052 121.768C140.972 121.224 142.052 120.168 143.276 117.088C143.724 115.964 144.356 114.124 144.98 112.24L147.112 105.6L149.164 103.852C151.188 109.324 155.892 119.872 156.56 121.38C157.36 123.188 157.968 131.228 160.18 136.256C162.392 141.284 162.98 143.696 162.98 143.696C162.98 143.696 166.732 143.908 165.928 141.496Z" fill="#2E353A" stroke="#2E353A" stroke-linecap="round" stroke-linejoin="round"/>
<path d="M157.036 94.964L157.8 99.424" stroke="white" stroke-width="0.5" stroke-miterlimit="10"/>
<path d="M48.8721 60.516L37.3201 158.636C37.3044 158.777 37.3287 158.92 37.3902 159.048C37.4516 159.177 37.5478 159.285 37.6678 159.361C37.7878 159.437 37.9268 159.478 38.069 159.48C38.2111 159.481 38.3508 159.442 38.4721 159.368L45.8961 154.8C46.3367 154.527 46.8662 154.436 47.3729 154.545C47.8795 154.655 48.3238 154.957 48.6121 155.388L57.9401 169.256L61.8321 110.92L48.8721 60.516Z" fill="#FF725E" stroke="#2E353A" stroke-linecap="round" stroke-linejoin="round"/>
<path d="M48.8 62.984L38.36 156.184C38.3374 156.385 38.3741 156.589 38.4654 156.769C38.5568 156.95 38.6989 157.1 38.8742 157.201C39.0496 157.302 39.2507 157.35 39.4528 157.338C39.6549 157.327 39.8492 157.256 40.012 157.136L45.44 153.136C45.7223 152.927 46.0442 152.778 46.3861 152.698C46.728 152.618 47.0826 152.609 47.4282 152.671C47.7738 152.732 48.1032 152.864 48.3962 153.058C48.6891 153.251 48.9395 153.502 49.132 153.796L55.484 163.492C55.5528 163.6 55.6557 163.681 55.7763 163.724C55.8969 163.766 56.0283 163.767 56.1494 163.726C56.2705 163.685 56.3743 163.605 56.4444 163.498C56.5145 163.391 56.5467 163.263 56.536 163.136L49.12 62.988C49.1123 62.9516 49.0924 62.9188 49.0636 62.8952C49.0348 62.8716 48.9988 62.8584 48.9616 62.858C48.9243 62.8575 48.8881 62.8697 48.8587 62.8926C48.8293 62.9155 48.8086 62.9478 48.8 62.984Z" fill="#FF725E" stroke="#2E353A" stroke-linecap="round" stroke-linejoin="round"/>
<path opacity="0.6" d="M48.9439 61.632L38.3519 156.176C38.3294 156.377 38.366 156.581 38.4574 156.761C38.5487 156.942 38.6908 157.092 38.8662 157.193C39.0416 157.294 39.2427 157.342 39.4448 157.33C39.6469 157.319 39.8412 157.248 40.0039 157.128L45.4319 153.128C45.7142 152.919 46.0362 152.77 46.378 152.69C46.7199 152.61 47.0745 152.601 47.4201 152.663C47.7658 152.724 48.0952 152.856 48.3881 153.05C48.6811 153.243 48.9315 153.494 49.1239 153.788L55.4759 163.484C55.5448 163.592 55.6477 163.673 55.7683 163.716C55.8889 163.758 56.0202 163.759 56.1413 163.718C56.2624 163.677 56.3663 163.597 56.4364 163.49C56.5064 163.383 56.5387 163.255 56.5279 163.128L49.0199 61.632C49.0173 61.624 49.0122 61.617 49.0054 61.6121C48.9986 61.6072 48.9904 61.6045 48.9819 61.6045C48.9735 61.6045 48.9653 61.6072 48.9585 61.6121C48.9517 61.617 48.9466 61.624 48.9439 61.632Z" fill="black"/>
<path d="M47.012 152.616C47.4322 152.623 47.8443 152.733 48.2123 152.936C48.5804 153.139 48.8934 153.429 49.124 153.78L55.476 163.476C55.5448 163.584 55.6477 163.665 55.7683 163.708C55.8889 163.75 56.0203 163.751 56.1414 163.71C56.2624 163.669 56.3663 163.589 56.4364 163.482C56.5065 163.375 56.5387 163.247 56.528 163.12L55.62 150.864L46.876 152.576C46.9225 152.585 46.968 152.598 47.012 152.616Z" fill="#FF725E" stroke="#2E353A" stroke-linecap="round" stroke-linejoin="round"/>
<path opacity="0.3" d="M47.012 152.616C47.4322 152.623 47.8443 152.733 48.2123 152.936C48.5804 153.139 48.8934 153.429 49.124 153.78L55.476 163.476C55.5448 163.584 55.6477 163.665 55.7683 163.708C55.8889 163.75 56.0203 163.751 56.1414 163.71C56.2624 163.669 56.3663 163.589 56.4364 163.482C56.5065 163.375 56.5387 163.247 56.528 163.12L55.62 150.864L46.876 152.576C46.9225 152.585 46.968 152.598 47.012 152.616Z" fill="black"/>
<path d="M49.1082 60.456L57.9362 169.256L160.876 149.64L136.684 64.788L49.1082 60.456Z" fill="#2E353A" stroke="#2E353A" stroke-linecap="round" stroke-linejoin="round"/>
<path d="M53.8801 62.804L59.9441 163.504L156.744 145.904L136.34 67.668L53.8801 62.804Z" fill="#FF725E" stroke="#2E353A" stroke-linecap="round" stroke-linejoin="round"/>
<path d="M59.7961 112.36L64.4001 160.092L152.352 144.1L144.18 108.224L59.7961 112.36Z" fill="white" stroke="#2E353A" stroke-linecap="round" stroke-linejoin="round"/>
<path d="M76.772 157.716L75.312 142.384" stroke="#2E353A" stroke-linecap="round" stroke-linejoin="round"/>
<path d="M90.232 155.344L88.824 142.564" stroke="#2E353A" stroke-linecap="round" stroke-linejoin="round"/>
<path d="M103.428 152.788L101.784 142.564" stroke="#2E353A" stroke-linecap="round" stroke-linejoin="round"/>
<path d="M117.024 150.456L115.068 138.268" stroke="#2E353A" stroke-linecap="round" stroke-linejoin="round"/>
<path d="M129 148.296L127.332 136.4" stroke="#2E353A" stroke-linecap="round" stroke-linejoin="round"/>
<path d="M140.484 146.172L138 131.868" stroke="#2E353A" stroke-linecap="round" stroke-linejoin="round"/>
<path d="M167.472 114.196C167.472 114.196 166.248 115.428 166.168 116.068C166.088 116.708 166.728 118.636 166.728 118.636L168.656 118.956L169.504 115.604L167.472 114.196Z" fill="white" stroke="#2E353A" stroke-linecap="round" stroke-linejoin="round"/>
<g style="mix-blend-mode:multiply" opacity="0.49">
<path d="M54.3682 90.624C54.3682 90.624 56.4002 119.868 58.2682 130.532C60.1362 141.196 63.6002 157.156 63.6002 157.156C63.6002 157.156 123.6 147.868 153.2 135.332L150.8 123.868L54.3682 90.624Z" fill="#FF725E"/>
</g>
<path d="M51.656 61.708L135.924 66.248C135.924 66.248 144.128 90.828 152.292 104.708C160.456 118.588 173.92 117.684 173.92 117.684C173.92 117.684 143.04 134.568 118.988 143.556C93.956 152.904 72.248 154.584 72.248 154.584C72.248 154.584 52.476 127.576 51.656 61.708Z" fill="#FF725E" stroke="#2E353A" stroke-linecap="round" stroke-linejoin="round"/>
<path d="M61.3039 57.332C59.7399 57.332 58.608 58.72 58.252 60.896L59.852 60.984C60.1 59.728 60.592 58.932 61.3 58.932C62.124 58.932 63.04 60.256 63.04 62.16C63.04 64.064 62.124 65.392 61.3 65.392C61.0878 65.392 60.8843 65.4763 60.7343 65.6263C60.5842 65.7763 60.5 65.9798 60.5 66.192C60.5 66.4042 60.5842 66.6077 60.7343 66.7577C60.8843 66.9077 61.0878 66.992 61.3 66.992C63.172 66.992 64.64 64.868 64.64 62.16C64.64 59.452 63.1759 57.332 61.3039 57.332Z" fill="white" stroke="#2E353A" stroke-miterlimit="10"/>
<path d="M63.6 63.456C63.5233 63.7381 63.4244 64.0136 63.304 64.28" stroke="#2E353A" stroke-width="0.75" stroke-linecap="round" stroke-linejoin="round"/>
<path d="M59.0439 60.176C59.0439 60.176 59.6439 58.008 61.4159 58.128C62.8079 58.224 63.9559 60.292 63.7639 62.504" stroke="#2E353A" stroke-width="0.75" stroke-linecap="round" stroke-linejoin="round"/>
<path d="M75.2 58.032C73.636 58.032 72.5039 59.42 72.1479 61.596L73.7479 61.684C73.9959 60.428 74.488 59.632 75.196 59.632C76.02 59.632 76.9359 60.956 76.9359 62.86C76.9359 64.764 76.02 66.092 75.196 66.092C74.9838 66.092 74.7803 66.1763 74.6303 66.3263C74.4802 66.4764 74.396 66.6798 74.396 66.892C74.396 67.1042 74.4802 67.3077 74.6303 67.4577C74.7803 67.6077 74.9838 67.692 75.196 67.692C77.068 67.692 78.5359 65.568 78.5359 62.86C78.5359 60.152 77.076 58.032 75.2 58.032Z" fill="white" stroke="#2E353A" stroke-miterlimit="10"/>
<path d="M77.5001 64.156C77.4235 64.4381 77.3245 64.7136 77.2041 64.98" stroke="#2E353A" stroke-width="0.75" stroke-linecap="round" stroke-linejoin="round"/>
<path d="M72.9441 60.876C72.9441 60.876 73.5441 58.708 75.3161 58.828C76.7081 58.924 77.8561 60.992 77.6641 63.204" stroke="#2E353A" stroke-width="0.75" stroke-linecap="round" stroke-linejoin="round"/>
<path d="M89.104 58.732C87.54 58.732 86.408 60.12 86.052 62.296L87.652 62.384C87.9 61.128 88.392 60.332 89.1 60.332C89.924 60.332 90.84 61.656 90.84 63.56C90.84 65.464 89.924 66.792 89.1 66.792C88.8878 66.792 88.6843 66.8763 88.5343 67.0263C88.3843 67.1763 88.3 67.3798 88.3 67.592C88.3 67.8042 88.3843 68.0076 88.5343 68.1577C88.6843 68.3077 88.8878 68.392 89.1 68.392C90.972 68.392 92.44 66.268 92.44 63.56C92.44 60.852 90.976 58.732 89.104 58.732Z" fill="white" stroke="#2E353A" stroke-miterlimit="10"/>
<path d="M91.4 64.856C91.3234 65.1381 91.2244 65.4136 91.104 65.68" stroke="#2E353A" stroke-width="0.75" stroke-linecap="round" stroke-linejoin="round"/>
<path d="M86.844 61.576C86.844 61.576 87.444 59.408 89.216 59.528C90.608 59.624 91.756 61.692 91.564 63.904" stroke="#2E353A" stroke-width="0.75" stroke-linecap="round" stroke-linejoin="round"/>
<path d="M103.004 59.432C101.44 59.432 100.308 60.82 99.9521 62.996L101.552 63.084C101.8 61.828 102.292 61.032 103 61.032C103.824 61.032 104.74 62.356 104.74 64.26C104.74 66.164 103.824 67.492 103 67.492C102.788 67.492 102.584 67.5763 102.434 67.7263C102.284 67.8763 102.2 68.0798 102.2 68.292C102.2 68.5042 102.284 68.7077 102.434 68.8577C102.584 69.0077 102.788 69.092 103 69.092C104.872 69.092 106.34 66.968 106.34 64.26C106.34 61.552 104.876 59.432 103.004 59.432Z" fill="white" stroke="#2E353A" stroke-miterlimit="10"/>
<path d="M105.3 65.556C105.224 65.8381 105.125 66.1136 105.004 66.38" stroke="#2E353A" stroke-width="0.75" stroke-linecap="round" stroke-linejoin="round"/>
<path d="M100.744 62.276C100.744 62.276 101.344 60.108 103.116 60.228C104.508 60.324 105.656 62.392 105.464 64.604" stroke="#2E353A" stroke-width="0.75" stroke-linecap="round" stroke-linejoin="round"/>
<path d="M117.156 60.052C115.592 60.052 114.46 61.44 114.108 63.62L115.708 63.708C115.96 62.452 116.452 61.652 117.156 61.652C117.98 61.652 118.9 62.98 118.9 64.884C118.9 66.788 117.98 68.112 117.156 68.112C116.944 68.112 116.741 68.1963 116.59 68.3463C116.44 68.4963 116.356 68.6998 116.356 68.912C116.356 69.1242 116.44 69.3277 116.59 69.4777C116.741 69.6277 116.944 69.712 117.156 69.712C119.032 69.712 120.5 67.592 120.5 64.884C120.5 62.176 119.032 60.052 117.156 60.052Z" fill="white" stroke="#2E353A" stroke-miterlimit="10"/>
<path d="M119.452 66.18C119.376 66.461 119.277 66.7353 119.156 67" stroke="#2E353A" stroke-width="0.75" stroke-linecap="round" stroke-linejoin="round"/>
<path d="M114.896 62.9C114.896 62.9 115.5 60.728 117.268 60.848C118.664 60.944 119.808 63.016 119.62 65.228" stroke="#2E353A" stroke-width="0.75" stroke-linecap="round" stroke-linejoin="round"/>
<path d="M130.752 60.8C129.188 60.8 128.056 62.188 127.704 64.364L129.304 64.456C129.556 63.2 130.048 62.4 130.752 62.4C131.576 62.4 132.496 63.728 132.496 65.628C132.496 67.528 131.576 68.86 130.752 68.86C130.54 68.86 130.336 68.9443 130.186 69.0943C130.036 69.2443 129.952 69.4478 129.952 69.66C129.952 69.8722 130.036 70.0756 130.186 70.2257C130.336 70.3757 130.54 70.46 130.752 70.46C132.628 70.46 134.096 68.336 134.096 65.628C134.096 62.92 132.628 60.8 130.752 60.8Z" fill="white" stroke="#2E353A" stroke-miterlimit="10"/>
<path d="M133.048 66.904C132.973 67.1865 132.874 67.4621 132.752 67.728" stroke="#2E353A" stroke-width="0.75" stroke-linecap="round" stroke-linejoin="round"/>
<path d="M128.492 63.628C128.492 63.628 129.096 61.456 130.864 61.576C132.26 61.672 133.404 63.74 133.216 65.952" stroke="#2E353A" stroke-width="0.75" stroke-linecap="round" stroke-linejoin="round"/>
<path d="M169.504 115.6C169.504 115.6 170.304 116.696 170.304 117.164C170.304 117.632 169.208 118.416 169.208 119.508C169.208 120.6 167.8 120.308 167.644 119.508C167.488 118.708 167.956 117.632 167.956 117.632C167.956 117.632 167.304 117.232 167.156 115.824C167.008 114.416 168.276 114.816 168.276 114.816L169.504 115.6Z" fill="white" stroke="#2E353A" stroke-linecap="round" stroke-linejoin="round"/>
<path d="M149.504 104.772C143.708 94.916 137.62 79.352 135.456 73.624L60.1481 70.572C60.1001 126.232 76.9481 149.228 76.9481 149.228C76.9481 149.228 96.1281 147.744 118.248 139.48C139.504 131.54 164.856 118.212 164.856 118.212C164.856 118.212 156.716 117.04 149.504 104.772Z" fill="white" stroke="#2E353A" stroke-linecap="round" stroke-linejoin="round"/>
<path d="M135.456 73.624L60.1479 70.572C60.1479 76.048 60.3039 81.2 60.5919 86.052L140.12 85.308C138.06 80.4 136.4 76.1 135.456 73.624Z" fill="#2E353A" stroke="#2E353A" stroke-linecap="round" stroke-linejoin="round"/>
<path d="M136.788 90.216L140.348 90.092" stroke="#2E353A" stroke-width="3" stroke-linecap="round" stroke-linejoin="round"/>
<path d="M126.324 90.572L134.12 90.304" stroke="#2E353A" stroke-width="3" stroke-linecap="round" stroke-linejoin="round"/>
<path d="M113.656 91L123.676 90.66" stroke="#2E353A" stroke-width="3" stroke-linecap="round" stroke-linejoin="round"/>
<path d="M100.768 91.436L111.444 91.076" stroke="#2E353A" stroke-width="3" stroke-linecap="round" stroke-linejoin="round"/>
<path d="M88.3081 91.86L98.0961 91.528" stroke="#2E353A" stroke-width="3" stroke-linecap="round" stroke-linejoin="round"/>
<path d="M75.1802 92.308L84.9762 91.972" stroke="#2E353A" stroke-width="3" stroke-linecap="round" stroke-linejoin="round"/>
<path d="M63.624 92.7L72.74 92.388" stroke="#2E353A" stroke-width="3" stroke-linecap="round" stroke-linejoin="round"/>
<path d="M62.1401 101.28L144.992 96.232" stroke="#2E353A" stroke-linecap="round" stroke-linejoin="round"/>
<path d="M75.2319 100.568C75.2319 100.568 76.5919 122.6 91.1159 147.056" stroke="#2E353A" stroke-linecap="round" stroke-linejoin="round"/>
<path d="M88.6001 99.684C88.6001 99.684 90.1321 124.884 106.056 143.336" stroke="#2E353A" stroke-linecap="round" stroke-linejoin="round"/>
<path d="M100.704 98.94C100.704 98.94 101.504 122.14 119.404 138.812" stroke="#2E353A" stroke-linecap="round" stroke-linejoin="round"/>
<path d="M113.252 98.4C113.252 98.4 115.228 124.192 132.552 133.276" stroke="#2E353A" stroke-linecap="round" stroke-linejoin="round"/>
<path d="M126.4 97.364C126.4 97.364 127.792 116.872 145.512 127.556" stroke="#2E353A" stroke-linecap="round" stroke-linejoin="round"/>
<path d="M136.752 96.732C136.752 96.732 141.52 116.732 154.86 123.208" stroke="#2E353A" stroke-linecap="round" stroke-linejoin="round"/>
<path d="M63.9561 112.644L148.58 103.336" stroke="#2E353A" stroke-linecap="round" stroke-linejoin="round"/>
<path d="M66.1641 122.6C66.1641 122.6 84.2321 121.892 152.516 109.308" stroke="#2E353A" stroke-linecap="round" stroke-linejoin="round"/>
<path d="M69.3521 133.14C69.3521 133.14 86.9521 135.14 155.904 113.184" stroke="#2E353A" stroke-linecap="round" stroke-linejoin="round"/>
<path d="M73.1602 142.336C73.1602 142.336 87.8322 147.196 159.904 116.336" stroke="#2E353A" stroke-linecap="round" stroke-linejoin="round"/>
<path d="M92.676 81.46L65.548 81.096C65.3282 81.0927 65.1171 81.0098 64.9538 80.8627C64.7905 80.7156 64.6861 80.5142 64.66 80.296L64.428 78.104C64.4144 77.9779 64.4277 77.8503 64.4672 77.7296C64.5066 77.609 64.5711 77.4982 64.6566 77.4044C64.7421 77.3106 64.8465 77.2361 64.9629 77.1856C65.0793 77.1352 65.2052 77.1101 65.332 77.112L92.132 77.576C92.3301 77.5795 92.5215 77.6479 92.6769 77.7708C92.8322 77.8936 92.943 78.0641 92.992 78.256L93.536 80.34C93.57 80.4718 93.5736 80.6096 93.5464 80.743C93.5192 80.8763 93.462 81.0018 93.3791 81.1097C93.2962 81.2177 93.1898 81.3053 93.068 81.366C92.9462 81.4267 92.8121 81.4589 92.676 81.46Z" fill="white"/>
</svg>
