<svg width="500" height="500" viewBox="0 0 500 500" fill="none" xmlns="http://www.w3.org/2000/svg">
<path d="M388.17 106.52L465.95 106.41C465.95 106.41 462.07 101.41 457.81 100.75C457.81 100.75 449.48 76.08 435.6 75.93C422.69 75.78 417.54 91.14 417.54 91.14C417.54 91.14 411.54 84.26 405.84 87.42C400.14 90.58 396.91 99.59 396.91 99.59C396.91 99.59 390.49 103.06 388.17 106.52Z" fill="#EBEBEB"/>
<path d="M222.68 120.5L124.32 120.65C124.32 120.65 124.32 114.36 137.86 113.11C137.86 113.11 150.19 85.63 169.08 89.29C180.85 91.57 186.88 107.71 186.88 107.71C186.88 107.71 195.75 94.99 202.88 97.44C210.01 99.89 214.23 113.44 214.23 113.44C214.23 113.44 221.56 117 222.68 120.5Z" fill="#EBEBEB"/>
<path d="M370.57 192.42L303.69 192.52C303.69 192.52 310 186.64 312.8 186.64C315.6 186.64 323.8 166.9 334.23 167.72C344.66 168.54 350.23 183.22 350.23 183.22C350.23 183.22 363 179.22 370.57 192.42Z" fill="#EBEBEB"/>
<path d="M91.25 174L34.05 174.09C34.05 174.09 36.89 170.38 40.05 169.92C40.05 169.92 46.11 151.76 56.32 151.61C65.81 151.48 69.63 162.75 69.63 162.75C69.63 162.75 74.0201 157.69 78.2301 159.99C82.4401 162.29 84.82 168.92 84.82 168.92C84.82 168.92 89.53 171.42 91.25 174Z" fill="#EBEBEB"/>
<path d="M29.4299 423.96L84.5699 423.72L139.72 423.63L250 423.46L360.29 423.63L415.43 423.72L470.57 423.96L415.43 424.2L360.29 424.29L250 424.46L139.72 424.29L84.5699 424.2L29.4299 423.96Z" fill="#263238"/>
<path d="M280.47 463.83C381.527 463.83 463.45 455.874 463.45 446.06C463.45 436.246 381.527 428.29 280.47 428.29C179.413 428.29 97.49 436.246 97.49 446.06C97.49 455.874 179.413 463.83 280.47 463.83Z" fill="#EBEBEB"/>
<g opacity="0.3">
<path d="M140.53 80.93C140.53 92.0691 136.105 102.752 128.228 110.628C120.352 118.505 109.669 122.93 98.53 122.93C75.32 122.93 55.46 104.12 55.46 80.93C55.46 57.74 75.3 37.86 98.51 37.86C121.72 37.86 140.53 57.72 140.53 80.93Z" fill="#FF725E"/>
</g>
<g opacity="0.3">
<path d="M97.5499 115.25C88.4246 115.247 79.6738 111.621 73.2213 105.169C66.7687 98.7161 63.1425 89.9653 63.1399 80.84C63.1399 61.84 78.5499 45.56 97.5499 45.56C116.55 45.56 132.83 61.83 132.83 80.84C132.83 99.85 116.56 115.25 97.5499 115.25Z" fill="#FF725E"/>
</g>
<path d="M98.4301 110.2C114.64 110.2 127.78 97.0596 127.78 80.85C127.78 64.6404 114.64 51.5 98.4301 51.5C82.2205 51.5 69.0801 64.6404 69.0801 80.85C69.0801 97.0596 82.2205 110.2 98.4301 110.2Z" fill="#FF725E"/>
<path d="M183.35 392.88L178.92 443.09H297.92C297.92 443.09 284.63 342.71 284.63 341.83C284.63 340.95 308.84 310.24 303.53 244.99C296.89 163.78 240 135.76 182.76 135.76C125.52 135.76 85.34 188.67 79.76 226.42L58.76 311.42L86.21 315.26C86.21 315.26 87.39 372.82 102.21 387.58C117.03 402.34 183.35 392.88 183.35 392.88Z" fill="white"/>
<path opacity="0.41" d="M183.35 392.88L178.92 443.09H297.92C297.92 443.09 284.63 342.71 284.63 341.83C284.63 340.95 308.84 310.24 303.53 244.99C296.89 163.78 240 135.76 182.76 135.76C125.52 135.76 85.34 188.67 79.76 226.42L58.76 311.42L86.21 315.26C86.21 315.26 87.39 372.82 102.21 387.58C117.03 402.34 183.35 392.88 183.35 392.88Z" fill="#FF725E"/>
<path d="M286.75 247.27C284.55 257.35 271.19 262.27 271.19 262.27C270.37 264.09 274.92 299.64 276.19 301.67C277.46 303.7 269.94 308.94 268.95 307.77C267.96 306.6 259.17 283.47 240.88 279.31C238.11 282.49 234.7 285.049 230.872 286.818C227.045 288.588 222.887 289.529 218.67 289.58C203.97 289.94 193.27 279.42 193.27 279.42C193.27 279.42 182.9 294.72 161.16 290.77C139.42 286.82 134.81 269.67 134.81 269.67C134.81 269.67 106.72 278.16 95.9299 255.19C87.6699 237.62 96.7299 224.82 101.41 219.81C102.163 218.979 102.971 218.201 103.83 217.48C103.83 217.48 101.51 196.17 114.68 185C127.85 173.83 145.24 175.17 145.24 175.17C145.24 175.17 152.24 153.6 172.37 149.4C192.5 145.2 204.69 156.87 204.69 156.87C210.669 154.224 217.13 152.841 223.669 152.806C230.208 152.772 236.683 154.087 242.69 156.67C263.59 165.38 262.95 186.14 262.95 186.14C262.95 186.14 278.15 191.14 283.19 203.55C288.23 215.96 279.99 228.41 279.99 228.41C279.99 228.41 288.94 237.19 286.75 247.27Z" fill="#FF725E"/>
<g style="mix-blend-mode:multiply" opacity="0.1">
<g style="mix-blend-mode:multiply">
<path d="M240.88 279.3C238.11 282.48 234.7 285.039 230.872 286.808C227.045 288.578 222.887 289.519 218.67 289.57C203.97 289.93 193.27 279.41 193.27 279.41C193.27 279.41 182.9 294.71 161.16 290.76C139.42 286.81 134.81 269.66 134.81 269.66C134.81 269.66 106.72 278.15 95.9299 255.18C87.6699 237.61 96.7299 224.81 101.41 219.8L103.83 217.47C103.7 217.83 96.0099 239.25 109.65 252.66C123.29 266.07 143 257.34 143 257.34C143 257.34 145.52 278.54 162.42 283.39C181.19 288.78 193.36 274.51 193.36 274.51C193.36 274.51 215.31 298.42 240.88 279.3Z" fill="#222221"/>
</g>
</g>
<g style="mix-blend-mode:multiply" opacity="0.1">
<path d="M269 307.76C268 306.6 259.22 283.46 240.93 279.3C240.93 279.3 255.93 270.49 262.84 276.66C269.75 282.83 269 307.76 269 307.76Z" fill="#222221"/>
</g>
<path d="M249 140.54C250.07 139.94 251.82 139.08 253.08 139.32C253.291 139.38 253.487 139.487 253.651 139.633C253.815 139.779 253.945 139.96 254.029 140.163C254.114 140.365 254.152 140.585 254.14 140.804C254.128 141.024 254.066 141.238 253.96 141.43C253.255 142.691 252.185 143.709 250.89 144.35C250.221 144.677 249.5 144.884 248.76 144.96C247.96 145.265 247.105 145.401 246.25 145.36H246.09C246.065 145.369 246.039 145.373 246.012 145.372C245.986 145.37 245.96 145.363 245.936 145.35C245.913 145.338 245.892 145.321 245.875 145.3C245.859 145.28 245.847 145.256 245.84 145.23L245.7 145.18C243.65 144.29 248.22 141 249 140.54Z" fill="#FF725E"/>
<g style="mix-blend-mode:multiply" opacity="0.3">
<path d="M249 140.54C250.07 139.94 251.82 139.08 253.08 139.32C253.291 139.38 253.487 139.487 253.651 139.633C253.815 139.779 253.945 139.96 254.029 140.163C254.114 140.365 254.152 140.585 254.14 140.804C254.128 141.024 254.066 141.238 253.96 141.43C253.255 142.691 252.185 143.709 250.89 144.35C250.221 144.677 249.5 144.884 248.76 144.96C247.96 145.265 247.105 145.401 246.25 145.36H246.09C246.065 145.369 246.039 145.373 246.012 145.372C245.986 145.37 245.96 145.363 245.936 145.35C245.913 145.338 245.892 145.321 245.875 145.3C245.859 145.28 245.847 145.256 245.84 145.23L245.7 145.18C243.65 144.29 248.22 141 249 140.54Z" fill="#222221"/>
</g>
<path d="M227.09 144.7C226.59 146.04 225.78 148.35 226.75 149.7C226.806 149.784 226.884 149.849 226.977 149.889C227.069 149.928 227.171 149.939 227.27 149.92C227.85 149.742 228.346 149.362 228.67 148.85C229.902 147.602 230.847 146.1 231.44 144.45C231.86 143.3 231.25 141.58 229.78 141.59C228.31 141.6 227.5 143.57 227.09 144.7Z" fill="#FF725E"/>
<g style="mix-blend-mode:multiply" opacity="0.3">
<path d="M227.09 144.7C226.59 146.04 225.78 148.35 226.75 149.7C226.806 149.784 226.884 149.849 226.977 149.889C227.069 149.928 227.171 149.939 227.27 149.92C227.85 149.742 228.346 149.362 228.67 148.85C229.902 147.602 230.847 146.1 231.44 144.45C231.86 143.3 231.25 141.58 229.78 141.59C228.31 141.6 227.5 143.57 227.09 144.7Z" fill="#222221"/>
</g>
<path d="M216 155.81C216.36 156.93 217.57 158.29 218.32 156.61C218.342 156.565 218.353 156.515 218.353 156.465C218.353 156.415 218.342 156.365 218.32 156.32C219.32 154.32 220.32 152.17 219.32 149.93C218.69 148.47 217.15 148.41 216.12 149.56C214.65 151.19 215.41 154 216 155.81Z" fill="#FF725E"/>
<g style="mix-blend-mode:multiply" opacity="0.3">
<path d="M216 155.81C216.36 156.93 217.57 158.29 218.32 156.61C218.342 156.565 218.353 156.515 218.353 156.465C218.353 156.415 218.342 156.365 218.32 156.32C219.32 154.32 220.32 152.17 219.32 149.93C218.69 148.47 217.15 148.41 216.12 149.56C214.65 151.19 215.41 154 216 155.81Z" fill="#222221"/>
</g>
<path d="M246.81 145.37C245.08 146.6 241.62 147.37 240.49 147.53C240.06 147.82 233.01 151.31 230.43 153.46C228.711 154.899 227.128 156.492 225.7 158.22C228.659 156.329 231.81 154.757 235.1 153.53C238.1 152.41 241.6 151.95 244.64 153.27C244.64 153.37 240.7 155.11 239.01 155.99C237.32 156.87 236.01 157.86 234.4 158.54C231.368 159.688 228.082 159.995 224.89 159.43C224.85 159.422 224.813 159.404 224.78 159.38C222.726 161.985 221.09 164.893 219.93 168C217.07 176 217.23 184.13 218.36 191.71C218.27 191.57 218.16 191.45 218.05 191.31C217.741 190.897 217.407 190.503 217.05 190.13C216.715 187.774 216.527 185.399 216.49 183.02C216.495 182.983 216.495 182.947 216.49 182.91C213.799 181.505 211.634 179.267 210.32 176.53C209.043 173.19 208.04 169.752 207.32 166.25C210.594 168.049 213.166 170.899 214.62 174.34C215.459 176.278 216.129 178.286 216.62 180.34C216.67 179.21 216.74 178.09 216.87 176.97C216.488 172.981 216.428 168.968 216.69 164.97C216.81 163.219 217.03 161.476 217.35 159.75C216.923 158.67 216.614 157.547 216.43 156.4C216.403 156.001 216.479 155.602 216.65 155.24C216.803 154.841 217.103 154.516 217.487 154.331C217.872 154.145 218.313 154.112 218.72 154.24C218.793 154.259 218.858 154.302 218.905 154.362C218.952 154.421 218.978 154.494 218.98 154.57C218.98 154.78 218.98 155 218.98 155.22C218.765 156.734 218.431 158.229 217.98 159.69C217.547 161.971 217.283 164.28 217.19 166.6C217.09 169.05 217.19 171.48 217.31 173.92C217.679 172.07 218.19 170.251 218.84 168.48C219.394 164.967 220.459 161.555 222 158.35C222.99 156.393 224.096 154.496 225.31 152.67C225.502 151.286 225.837 149.925 226.31 148.61C226.67 147.73 227.18 147.08 227.87 147.12C228.96 147.12 228.99 147.92 228.62 148.83C228.064 149.957 227.387 151.02 226.6 152C224.443 155.057 222.632 158.344 221.2 161.8C220.808 162.841 220.474 163.902 220.2 164.98C222.696 159.947 226.357 155.582 230.88 152.25C233.927 150.181 237.145 148.378 240.5 146.86C241.99 145.76 243.38 144.59 244.85 143.39C245.296 142.904 245.872 142.557 246.51 142.39C246.68 142.379 246.851 142.412 247.005 142.485C247.159 142.559 247.291 142.671 247.39 142.81C248.19 143.87 247.76 144.69 246.81 145.37Z" fill="#455A64"/>
<g style="mix-blend-mode:multiply" opacity="0.1">
<path d="M194 186.94C196.632 185.773 199.455 185.095 202.33 184.94C203.787 184.835 205.251 184.875 206.7 185.06C208.163 185.256 209.602 185.608 210.99 186.11C212.377 186.664 213.688 187.393 214.89 188.28C216.06 189.172 217.121 190.199 218.05 191.34C219.899 193.567 221.261 196.156 222.05 198.94C220.649 196.522 218.953 194.289 217 192.29C215.123 190.345 212.857 188.819 210.35 187.81C207.782 186.884 205.079 186.391 202.35 186.35C199.554 186.28 196.758 186.477 194 186.94Z" fill="#222221"/>
<path d="M239.26 195.36C237.758 194.493 236.169 193.786 234.52 193.25C232.932 192.737 231.286 192.428 229.62 192.33C229.204 192.305 228.786 192.305 228.37 192.33C227.957 192.3 227.543 192.3 227.13 192.33L225.87 192.42C225.46 192.5 225.04 192.57 224.62 192.63L223.99 192.72L223.37 192.88L222.11 193.17C221.26 193.38 220.45 193.68 219.55 193.88C220.255 193.318 220.997 192.804 221.77 192.34C222.571 191.906 223.407 191.541 224.27 191.25C224.71 191.11 225.15 190.97 225.59 190.85L226.95 190.62C227.408 190.535 227.874 190.495 228.34 190.5C228.803 190.47 229.267 190.47 229.73 190.5C231.586 190.603 233.401 191.09 235.06 191.93C236.716 192.718 238.157 193.895 239.26 195.36Z" fill="#222221"/>
</g>
<path d="M278.42 191.39C275.521 193.052 272.514 194.519 269.42 195.78C267.95 196.492 266.425 197.084 264.86 197.55C264 197.785 263.089 197.75 262.25 197.45C261.775 197.36 261.349 197.1 261.05 196.72C260.977 196.64 260.931 196.538 260.92 196.43C259.61 195.25 259.22 193.35 258.82 191.59C257.995 188.081 257.543 184.494 257.47 180.89C257.47 179.58 257.2 177.89 257.8 176.63C258.17 175.88 258.63 175.81 259.21 175.39C260.59 174.39 260.63 173.1 261.63 171.86C261.859 171.505 262.18 171.219 262.558 171.032C262.937 170.846 263.359 170.765 263.78 170.8C265.88 171.22 265.66 175.3 265.78 176.8C266.04 179.888 266.04 182.992 265.78 186.08C265.607 188.869 265.182 191.637 264.51 194.35C267.323 190.102 270.731 186.28 274.63 183C276.03 181.81 278.27 179.86 280.29 180.57C281.11 180.86 281.02 181.48 281.55 181.92C282.67 182.85 283.89 181.92 285.06 182.48C289.44 184.68 279.93 190.53 278.42 191.39Z" fill="#FF725E"/>
<g style="mix-blend-mode:multiply" opacity="0.3">
<path d="M278.42 191.39C275.521 193.052 272.514 194.519 269.42 195.78C267.95 196.492 266.425 197.084 264.86 197.55C264 197.785 263.089 197.75 262.25 197.45C261.775 197.36 261.349 197.1 261.05 196.72C260.977 196.64 260.931 196.538 260.92 196.43C259.61 195.25 259.22 193.35 258.82 191.59C257.995 188.081 257.543 184.494 257.47 180.89C257.47 179.58 257.2 177.89 257.8 176.63C258.17 175.88 258.63 175.81 259.21 175.39C260.59 174.39 260.63 173.1 261.63 171.86C261.859 171.505 262.18 171.219 262.558 171.032C262.937 170.846 263.359 170.765 263.78 170.8C265.88 171.22 265.66 175.3 265.78 176.8C266.04 179.888 266.04 182.992 265.78 186.08C265.607 188.869 265.182 191.637 264.51 194.35C267.323 190.102 270.731 186.28 274.63 183C276.03 181.81 278.27 179.86 280.29 180.57C281.11 180.86 281.02 181.48 281.55 181.92C282.67 182.85 283.89 181.92 285.06 182.48C289.44 184.68 279.93 190.53 278.42 191.39Z" fill="#222221"/>
</g>
<path d="M275.32 175.7C272.18 182.04 268.66 188.17 265.63 194.56C265.55 194.72 265.28 194.56 265.35 194.44C267.71 188.59 270.89 183.13 273.77 177.53C275.285 174.784 276.447 171.857 277.23 168.82C277.71 166.75 277.83 164.82 279.23 163.23C279.287 163.159 279.361 163.103 279.446 163.07C279.53 163.036 279.622 163.026 279.713 163.039C279.803 163.052 279.888 163.089 279.959 163.145C280.031 163.201 280.086 163.275 280.12 163.36C280.96 165.36 278.57 168.27 277.31 170.18C276.836 172.083 276.169 173.932 275.32 175.7Z" fill="#263238"/>
<path d="M262.89 174.83C260.62 180.66 260.11 186.99 259.37 193.13C259.37 193.159 259.358 193.187 259.338 193.208C259.317 193.228 259.289 193.24 259.26 193.24C259.231 193.24 259.203 193.228 259.182 193.208C259.161 193.187 259.15 193.159 259.15 193.13C259.21 184.95 261.15 175.87 265.47 168.84C265.85 168.21 268.37 164.35 269.39 165.64C269.93 166.33 268.73 167.44 268.34 167.83C267.09 169.15 265.54 170.06 264.4 171.51C263.79 172.65 263.3 173.79 262.89 174.83Z" fill="#263238"/>
<path d="M285.81 176.85C285.237 179.633 284.13 182.278 282.55 184.64C279.35 189.74 274.77 193.81 269.92 197.3C269.81 197.39 269.67 197.19 269.77 197.11C274.4 193.39 278.97 189.49 282.16 184.41C282.994 183.089 283.716 181.701 284.32 180.26L284.46 179.92C284.453 179.908 284.449 179.894 284.449 179.88C284.449 179.866 284.453 179.852 284.46 179.84C284.682 178.135 284.709 176.411 284.54 174.7C284.388 173.973 284.505 173.216 284.87 172.57C284.886 172.543 284.91 172.522 284.939 172.509C284.968 172.497 284.999 172.494 285.03 172.5C286.45 172.87 286 175.83 285.81 176.85Z" fill="#263238"/>
<path d="M282.92 196.32C276.76 199.74 269.39 200.87 262.92 203.52C261.44 204.12 259.98 204.79 258.53 205.52C258.086 205.762 257.628 205.979 257.16 206.17C256.867 206.283 256.549 206.315 256.24 206.26C256.109 206.242 255.984 206.197 255.87 206.13C255.661 206.012 255.485 205.844 255.356 205.642C255.227 205.44 255.149 205.209 255.13 204.97C255.013 203.969 255.057 202.957 255.26 201.97C255.17 200.91 254.99 199.85 254.88 198.91C254.74 197.53 254.56 196.17 254.35 194.8C253.88 191.9 253.15 189.06 252.43 186.21C251.725 183.815 251.388 181.326 251.43 178.83C251.43 177.5 251.66 175.02 252.84 174.15C254.02 173.28 254.66 174.08 255.08 175.07C255.5 176.06 255.47 177.07 255.78 177.99C256.26 179.42 257.11 179.56 258.05 180.45C258.611 181.082 259.03 181.826 259.28 182.634C259.53 183.441 259.605 184.292 259.5 185.13C259.42 186.48 259.27 187.84 259.09 189.18C259.49 187.97 259.94 186.77 260.4 185.6C261.23 183.49 262.05 180.86 263.63 179.17C264.131 178.603 264.758 178.161 265.46 177.88C266.978 177.464 268.358 176.653 269.46 175.53C270.54 174.33 271.94 172.16 273.85 172.45C275.76 172.74 275.56 174.66 275.68 176.09C275.91 178.75 278.08 180.19 277.59 183.09C277.19 185.45 275.54 187.48 274.08 189.29C272.943 190.703 271.714 192.039 270.4 193.29C272.164 192.222 274.065 191.398 276.05 190.84C276.902 190.523 277.824 190.437 278.72 190.59C280.01 190.93 280.08 191.75 281.72 191.59C282.94 191.45 285.61 190.59 286.27 192.28C286.93 193.97 284.13 195.64 282.92 196.32Z" fill="#FF725E"/>
<g style="mix-blend-mode:multiply" opacity="0.1">
<path d="M282.92 196.32C276.76 199.74 269.39 200.87 262.92 203.52C261.44 204.12 259.98 204.79 258.53 205.52C258.086 205.762 257.628 205.979 257.16 206.17C256.867 206.283 256.549 206.315 256.24 206.26C256.109 206.242 255.984 206.197 255.87 206.13C255.661 206.012 255.485 205.844 255.356 205.642C255.227 205.44 255.149 205.209 255.13 204.97C255.013 203.969 255.057 202.957 255.26 201.97C255.17 200.91 254.99 199.85 254.88 198.91C254.74 197.53 254.56 196.17 254.35 194.8C253.88 191.9 253.15 189.06 252.43 186.21C251.725 183.815 251.388 181.326 251.43 178.83C251.43 177.5 251.66 175.02 252.84 174.15C254.02 173.28 254.66 174.08 255.08 175.07C255.5 176.06 255.47 177.07 255.78 177.99C256.26 179.42 257.11 179.56 258.05 180.45C258.611 181.082 259.03 181.826 259.28 182.634C259.53 183.441 259.605 184.292 259.5 185.13C259.42 186.48 259.27 187.84 259.09 189.18C259.49 187.97 259.94 186.77 260.4 185.6C261.23 183.49 262.05 180.86 263.63 179.17C264.131 178.603 264.758 178.161 265.46 177.88C266.978 177.464 268.358 176.653 269.46 175.53C270.54 174.33 271.94 172.16 273.85 172.45C275.76 172.74 275.56 174.66 275.68 176.09C275.91 178.75 278.08 180.19 277.59 183.09C277.19 185.45 275.54 187.48 274.08 189.29C272.943 190.703 271.714 192.039 270.4 193.29C272.164 192.222 274.065 191.398 276.05 190.84C276.902 190.523 277.824 190.437 278.72 190.59C280.01 190.93 280.08 191.75 281.72 191.59C282.94 191.45 285.61 190.59 286.27 192.28C286.93 193.97 284.13 195.64 282.92 196.32Z" fill="#222221"/>
</g>
<path d="M254.56 186.09V186.16C254.62 186.15 254.6 186.08 254.56 186.09Z" fill="#F1D1C5"/>
<path d="M277.86 196.09C271.78 199.97 261.22 199.22 257.14 205.82V206.14C256.847 206.253 256.529 206.285 256.22 206.23C255.3 203.93 255.74 201.36 255.83 198.9C256.044 195.182 255.785 191.453 255.06 187.8C255.06 187.7 255.18 187.67 255.22 187.8C256.053 190.616 256.487 193.534 256.51 196.47C256.58 199.47 255.77 203.06 256.64 205.98L256.7 205.68C256.7 202.31 258.06 198.92 259.44 195.92C261.22 192.05 263.44 188.44 265.59 184.75C265.67 184.6 265.88 184.75 265.8 184.9C263.96 188.53 262.05 192.15 260.33 195.84C259.216 198.084 258.315 200.427 257.64 202.84C261 195 270.15 190.51 273 182.37C273.013 182.332 273.041 182.3 273.078 182.282C273.114 182.264 273.157 182.262 273.195 182.275C273.234 182.288 273.265 182.316 273.283 182.353C273.301 182.389 273.303 182.432 273.29 182.47C270.41 191.12 261.15 195.92 257.68 204.17C258.236 203.498 258.882 202.906 259.6 202.41C261.078 200.948 262.762 199.712 264.6 198.74C267.6 197.17 270.88 196.4 273.78 194.61C273.89 194.55 274 194.72 273.91 194.8C271.68 196.71 268.76 197.43 266.13 198.62C264.549 199.328 263.05 200.207 261.66 201.24C262.51 200.84 263.382 200.486 264.27 200.18C268.76 198.59 273.41 197.85 277.75 195.82C277.783 195.815 277.817 195.821 277.847 195.838C277.876 195.855 277.899 195.881 277.911 195.912C277.924 195.943 277.926 195.977 277.917 196.01C277.907 196.042 277.887 196.07 277.86 196.09Z" fill="white"/>
<path d="M254.14 181.39C253.966 182.31 254.024 183.259 254.31 184.15C254.315 184.163 254.324 184.174 254.336 184.182C254.347 184.19 254.361 184.194 254.375 184.194C254.389 184.194 254.403 184.19 254.414 184.182C254.426 184.174 254.435 184.163 254.44 184.15C254.34 183.256 254.34 182.354 254.44 181.46C254.4 181.3 254.18 181.24 254.14 181.39Z" fill="white"/>
<path d="M273.51 179.5C273.4 180 273.41 180.5 273.32 181.04C273.32 181.21 273.53 181.23 273.59 181.1C273.826 180.609 273.903 180.057 273.81 179.52C273.77 179.39 273.54 179.34 273.51 179.5Z" fill="white"/>
<path d="M280.23 194.2C279.97 194.335 279.723 194.493 279.49 194.67C279.475 194.686 279.465 194.706 279.461 194.727C279.456 194.748 279.458 194.77 279.465 194.791C279.472 194.812 279.485 194.83 279.502 194.844C279.518 194.858 279.539 194.867 279.56 194.87C279.886 194.847 280.192 194.704 280.42 194.47C280.55 194.35 280.4 194.1 280.23 194.2Z" fill="white"/>
<path d="M254.09 202.19C254.3 204.53 254.84 207.04 253.68 209.35C253.58 209.55 253.77 209.73 253.92 209.58C255.07 208.34 262.65 205.37 262.31 204.09C262.1 203.31 260 204.28 259.71 203.2C259.72 202.561 259.852 201.929 260.1 201.34C260.26 200.72 260.4 200.08 260.5 199.45C260.6 198.82 260.58 198.12 260.07 197.9C259.56 197.68 258.82 198.4 258.42 198.9C258.02 199.4 257.78 199.77 257.47 200.21C257.16 200.65 256.65 201.6 256.21 200.81C255.77 200.02 255.7 199.28 255.11 198.76C253.77 197.58 254 201.49 254.09 202.19Z" fill="#455A64"/>
<path d="M251.32 233.11C251.03 232.44 250.7 231.77 250.32 231.11C250.022 230.568 249.688 230.047 249.32 229.55C249.32 229.12 249.39 228.68 249.43 228.25C249.65 225.83 249.96 223.42 250.38 221.03C250.49 220.36 250.62 219.69 250.75 219.03C251.05 217.48 251.39 215.94 251.75 214.4C252.26 212.137 253.06 209.949 254.13 207.89C254.509 207.194 254.937 206.526 255.41 205.89L255.82 205.37L256.27 204.83L256.65 204.41L256.71 204.35C256.741 204.316 256.784 204.295 256.829 204.292C256.875 204.289 256.921 204.305 256.955 204.335C256.99 204.366 257.01 204.408 257.013 204.454C257.016 204.5 257.001 204.546 256.97 204.58L256.61 205.04C256.528 205.149 256.451 205.263 256.38 205.38C256.25 205.56 256.12 205.76 255.99 205.95C255.86 206.14 255.89 206.12 255.85 206.21C255.288 207.142 254.819 208.126 254.45 209.15C253.08 212.83 252.73 216.99 252.25 220.77C252.01 222.643 251.817 224.513 251.67 226.38C251.655 226.536 251.655 226.694 251.67 226.85C251.52 228.9 251.39 231 251.32 233.11Z" fill="#455A64"/>
<path d="M250.8 221.35C250.8 221.35 251.08 213.24 249.54 209.13C248 205.02 243.1 199.72 243.1 199.72C242.237 203.685 242.501 207.812 243.862 211.634C245.223 215.457 247.626 218.822 250.8 221.35Z" fill="#455A64"/>
<path d="M251.52 226.86C251.52 226.86 254.47 219.29 257.52 216.13C260.57 212.97 267.14 210.01 267.14 210.01C266.37 213.997 264.499 217.689 261.738 220.667C258.977 223.645 255.438 225.791 251.52 226.86Z" fill="#455A64"/>
<g style="mix-blend-mode:multiply" opacity="0.1">
<path d="M223.28 220.59C226.608 219.8 230.058 219.657 233.44 220.17C236.88 220.662 240.186 221.842 243.16 223.64C244.648 224.565 246.021 225.662 247.25 226.91C248.456 228.174 249.498 229.585 250.35 231.11C252.037 234.111 252.967 237.478 253.06 240.92C252.278 237.696 250.953 234.629 249.14 231.85C247.349 229.146 244.983 226.872 242.21 225.19C241.52 224.76 240.81 224.38 240.09 223.99C239.37 223.6 238.63 223.29 237.86 222.99C236.339 222.385 234.775 221.897 233.18 221.53C229.931 220.814 226.606 220.498 223.28 220.59Z" fill="#222221"/>
<path d="M272 230.42C270.214 229.988 268.4 229.687 266.57 229.52C264.798 229.375 263.016 229.443 261.26 229.72C260.391 229.85 259.532 230.041 258.69 230.29C257.849 230.568 257.027 230.902 256.23 231.29C254.581 232.097 253.008 233.051 251.53 234.14C252.549 232.504 253.915 231.111 255.53 230.06C256.345 229.511 257.217 229.052 258.13 228.69C259.051 228.355 260.002 228.107 260.97 227.95C262.902 227.649 264.874 227.72 266.78 228.16C268.656 228.548 270.433 229.317 272 230.42Z" fill="#222221"/>
</g>
<path d="M107 176.27C110.82 179.39 115.69 180.64 120.31 182.03C121.61 182.42 122.88 182.83 124.15 183.28C125.026 183.678 125.994 183.83 126.95 183.72C128.61 183.38 128.77 181.89 128.79 180.45C128.825 179.991 128.825 179.529 128.79 179.07V178.76C128.796 178.73 128.795 178.698 128.786 178.669C128.777 178.639 128.761 178.612 128.74 178.59C128.74 178.03 128.65 177.48 128.61 176.96C128.37 173.96 128.1 170.96 127.84 168.02C127.747 165.598 127.443 163.189 126.93 160.82C126.71 159.99 126.47 158.88 125.63 158.45C125.138 158.28 124.637 158.136 124.13 158.02C123.697 157.834 123.311 157.554 123 157.2C122.18 156.34 120.72 153.74 119.19 154.57C118.41 155 118.19 156 118.02 156.78C117.602 157.774 116.986 158.672 116.21 159.42C115.06 160.92 115.35 162.85 115.98 164.5C116.88 166.64 118.05 168.656 119.46 170.5C120.85 172.44 122.37 174.28 123.78 176.21C124.564 177.271 125.292 178.373 125.96 179.51C126.29 180.07 126.59 180.63 126.87 181.21C127.091 181.604 127.262 182.024 127.38 182.46C125.68 180.342 123.843 178.337 121.88 176.46C119.88 174.46 118.1 172.09 115.82 170.35C114.136 168.987 112.055 168.208 109.89 168.13C108.678 168.193 107.463 168.047 106.3 167.7C105.273 167.27 104.208 166.935 103.12 166.7C100.71 166.36 101.91 169.2 102.43 170.35C103.464 172.657 105.03 174.685 107 176.27Z" fill="#FF725E"/>
<g style="mix-blend-mode:multiply" opacity="0.3">
<path d="M107 176.27C110.82 179.39 115.69 180.64 120.31 182.03C121.61 182.42 122.88 182.83 124.15 183.28C125.026 183.678 125.994 183.83 126.95 183.72C128.61 183.38 128.77 181.89 128.79 180.45C128.825 179.991 128.825 179.529 128.79 179.07V178.76C128.796 178.73 128.795 178.698 128.786 178.669C128.777 178.639 128.761 178.612 128.74 178.59C128.74 178.03 128.65 177.48 128.61 176.96C128.37 173.96 128.1 170.96 127.84 168.02C127.747 165.598 127.443 163.189 126.93 160.82C126.71 159.99 126.47 158.88 125.63 158.45C125.138 158.28 124.637 158.136 124.13 158.02C123.697 157.834 123.311 157.554 123 157.2C122.18 156.34 120.72 153.74 119.19 154.57C118.41 155 118.19 156 118.02 156.78C117.602 157.774 116.986 158.672 116.21 159.42C115.06 160.92 115.35 162.85 115.98 164.5C116.88 166.64 118.05 168.656 119.46 170.5C120.85 172.44 122.37 174.28 123.78 176.21C124.564 177.271 125.292 178.373 125.96 179.51C126.29 180.07 126.59 180.63 126.87 181.21C127.091 181.604 127.262 182.024 127.38 182.46C125.68 180.342 123.843 178.337 121.88 176.46C119.88 174.46 118.1 172.09 115.82 170.35C114.136 168.987 112.055 168.208 109.89 168.13C108.678 168.193 107.463 168.047 106.3 167.7C105.273 167.27 104.208 166.935 103.12 166.7C100.71 166.36 101.91 169.2 102.43 170.35C103.464 172.657 105.03 174.685 107 176.27Z" fill="#222221"/>
</g>
<path d="M126.11 180.08C126.595 176.805 126.595 173.475 126.11 170.2C125.015 163.896 122.796 157.84 119.56 152.32C118.938 151.09 118.143 149.955 117.2 148.95C116.78 148.55 115.84 148.11 115.87 149.09C116.059 150.025 116.604 150.85 117.39 151.39C118.262 152.034 119.075 152.754 119.82 153.54C120.35 154.54 120.82 155.54 121.34 156.54C122.563 159.065 123.603 161.675 124.45 164.35C126.138 169.414 126.684 174.79 126.05 180.09L126.11 180.08Z" fill="#263238"/>
<path d="M125.41 181.54C122.132 181.055 118.944 180.088 115.95 178.67C110.23 175.803 105.074 171.928 100.73 167.23C99.7254 166.287 98.869 165.198 98.1899 164C97.9199 163.49 97.7699 162.46 98.6999 162.77C99.6299 163.08 100.13 164.12 100.47 164.89C100.827 165.929 101.279 166.934 101.82 167.89C102.61 168.68 103.41 169.45 104.24 170.21C106.304 172.11 108.503 173.858 110.82 175.44C115.178 178.52 120.164 180.596 125.42 181.52C125.42 181.52 125.46 181.55 125.41 181.54Z" fill="#263238"/>
<path d="M109 159.62C110.72 161.913 112.5 164.157 114.34 166.35C118.011 170.7 121.906 174.856 126.01 178.8C126.01 178.8 126.09 178.8 126.01 178.74C122.01 174.74 118.22 170.47 114.6 166.13C112.787 163.963 111.033 161.757 109.34 159.51C109 159.04 108.65 158.58 108.34 158.1C107.77 156.61 107.34 155.23 106.66 153.78C106.32 153.1 105.51 151.52 104.74 152.08C103.77 152.82 107.32 157.35 109 159.62Z" fill="#263238"/>
<path d="M101.32 176.06C102.406 177.729 103.777 179.195 105.37 180.39C108.784 182.96 112.682 184.814 116.83 185.84C120.777 187.02 124.934 187.324 129.01 186.73H129.16C129.174 186.741 129.192 186.748 129.21 186.748C129.228 186.748 129.246 186.741 129.26 186.73C129.367 186.715 129.471 186.685 129.57 186.64C129.57 186.64 129.96 186.57 129.87 186.53C130.04 186.296 130.223 186.072 130.42 185.86C131.144 185.05 131.793 184.177 132.36 183.25C132.965 182.031 133.361 180.72 133.53 179.37C133.98 176.28 133.53 173.13 133.91 170.03C134.2 167.33 135.22 164.75 135.13 162.03C135.13 161.43 135.03 160.46 134.19 160.62C133.12 160.83 132.97 162.31 132.27 162.93C132.22 163.09 132.09 163.14 131.9 163.08C131.66 163.2 131.51 163.13 131.44 162.86C131.342 162.703 131.262 162.535 131.2 162.36C131.044 161.997 130.907 161.627 130.79 161.25C130.57 160.59 130.4 159.91 130.22 159.25C130.035 158.03 129.577 156.868 128.88 155.85C128.775 155.705 128.632 155.591 128.468 155.519C128.303 155.448 128.123 155.422 127.945 155.445C127.767 155.467 127.598 155.537 127.457 155.647C127.315 155.757 127.206 155.903 127.14 156.07C126.752 157.176 126.612 158.354 126.73 159.52C126.73 160.33 126.56 161.52 125.46 161.27C125.01 161.18 124.6 160.91 124.15 160.82C123.747 160.752 123.332 160.827 122.979 161.034C122.626 161.24 122.358 161.565 122.22 161.95C121.75 163.09 122.15 164.54 122.39 165.7C122.723 167.191 123.147 168.661 123.66 170.1C124.66 172.84 126.86 178.02 128 180.69C128.62 182.16 121.66 166.99 119 163.93C118.348 163.309 117.49 162.953 116.59 162.93C116.01 162.93 115.47 163.16 114.89 163.15C114.296 163.098 113.718 162.928 113.19 162.65C111.75 162.01 109.29 161.25 108.89 163.48C108.7 164.48 109.17 165.48 109.19 166.48C109.057 167.433 108.738 168.351 108.25 169.18C107.42 171.31 109.41 173.18 110.8 174.6C112.529 176.355 114.41 177.955 116.42 179.38C117.66 180.28 122.42 183.38 123.71 184.18C122.06 183.34 116.95 180.18 115.34 179.24C114.28 178.63 113.24 177.99 112.22 177.33C111.2 176.67 110.39 176.01 109.42 175.48C108.634 175.091 107.753 174.931 106.88 175.02C105.693 174.911 104.518 174.693 103.37 174.37C102.75 174.27 101.6 173.88 101.15 174.51C100.77 174.91 101 175.61 101.32 176.06Z" fill="#FF725E"/>
<g style="mix-blend-mode:multiply" opacity="0.09">
<path d="M101.32 176.06C102.406 177.729 103.777 179.195 105.37 180.39C108.784 182.96 112.682 184.814 116.83 185.84C120.777 187.02 124.934 187.324 129.01 186.73H129.16C129.174 186.741 129.192 186.748 129.21 186.748C129.228 186.748 129.246 186.741 129.26 186.73C129.367 186.715 129.471 186.685 129.57 186.64C129.57 186.64 129.96 186.57 129.87 186.53C130.04 186.296 130.223 186.072 130.42 185.86C131.144 185.05 131.793 184.177 132.36 183.25C132.965 182.031 133.361 180.72 133.53 179.37C133.98 176.28 133.53 173.13 133.91 170.03C134.2 167.33 135.22 164.75 135.13 162.03C135.13 161.43 135.03 160.46 134.19 160.62C133.12 160.83 132.97 162.31 132.27 162.93C132.22 163.09 132.09 163.14 131.9 163.08C131.66 163.2 131.51 163.13 131.44 162.86C131.342 162.703 131.262 162.535 131.2 162.36C131.044 161.997 130.907 161.627 130.79 161.25C130.57 160.59 130.4 159.91 130.22 159.25C130.035 158.03 129.577 156.868 128.88 155.85C128.775 155.705 128.632 155.591 128.468 155.519C128.303 155.448 128.123 155.422 127.945 155.445C127.767 155.467 127.598 155.537 127.457 155.647C127.315 155.757 127.206 155.903 127.14 156.07C126.752 157.176 126.612 158.354 126.73 159.52C126.73 160.33 126.56 161.52 125.46 161.27C125.01 161.18 124.6 160.91 124.15 160.82C123.747 160.752 123.332 160.827 122.979 161.034C122.626 161.24 122.358 161.565 122.22 161.95C121.75 163.09 122.15 164.54 122.39 165.7C122.723 167.191 123.147 168.661 123.66 170.1C124.66 172.84 126.86 178.02 128 180.69C128.62 182.16 121.66 166.99 119 163.93C118.348 163.309 117.49 162.953 116.59 162.93C116.01 162.93 115.47 163.16 114.89 163.15C114.296 163.098 113.718 162.928 113.19 162.65C111.75 162.01 109.29 161.25 108.89 163.48C108.7 164.48 109.17 165.48 109.19 166.48C109.057 167.433 108.738 168.351 108.25 169.18C107.42 171.31 109.41 173.18 110.8 174.6C112.529 176.355 114.41 177.955 116.42 179.38C117.66 180.28 122.42 183.38 123.71 184.18C122.06 183.34 116.95 180.18 115.34 179.24C114.28 178.63 113.24 177.99 112.22 177.33C111.2 176.67 110.39 176.01 109.42 175.48C108.634 175.091 107.753 174.931 106.88 175.02C105.693 174.911 104.518 174.693 103.37 174.37C102.75 174.27 101.6 173.88 101.15 174.51C100.77 174.91 101 175.61 101.32 176.06Z" fill="#222221"/>
</g>
<path d="M109.13 180.93C115.031 184.537 121.768 186.546 128.68 186.76C128.692 186.767 128.706 186.771 128.72 186.771C128.734 186.771 128.748 186.767 128.76 186.76H129.01H129.16C129.174 186.771 129.192 186.778 129.21 186.778C129.228 186.778 129.246 186.771 129.26 186.76C129.367 186.745 129.472 186.715 129.57 186.67C129.57 186.67 129.96 186.6 129.87 186.56C130.04 186.326 130.224 186.102 130.42 185.89C131.708 183.518 132.376 180.859 132.36 178.16C132.27 176.43 131.89 174.71 131.73 172.97C131.562 171.202 131.528 169.423 131.63 167.65C131.49 169.37 131.45 171.096 131.51 172.82C131.58 174.47 131.86 176.1 131.98 177.74C132.21 180.81 131.05 183.37 129.98 186.08C130.532 183.661 130.7 181.171 130.48 178.7C130.098 175.718 129.49 172.77 128.66 169.88C128.66 169.8 128.53 169.82 128.55 169.88C129.1 172.8 129.87 175.72 130.18 178.67C130.436 181.206 130.295 183.767 129.76 186.26C127.36 183.35 125.44 180.1 123.35 176.98C121.33 173.95 119.091 171.073 116.65 168.37C116.65 168.37 116.54 168.37 116.58 168.44C119.068 171.336 121.344 174.407 123.39 177.63C125.17 180.635 127.175 183.5 129.39 186.2C126.904 184.546 124.601 182.632 122.52 180.49C120.38 178.14 118.32 175.71 116.28 173.27C118.28 175.85 120.28 178.48 122.51 180.91C124.611 183.106 126.999 185.006 129.61 186.56C123 186.32 116.91 182.72 111.35 179.23C115.69 182 120.14 184.86 125.05 186.1C122.799 185.851 120.572 185.419 118.39 184.81C115.2 183.858 112.14 182.515 109.28 180.81L109.13 180.93Z" fill="white"/>
<path d="M128.42 162.52C128.42 162.43 128.57 162.43 128.56 162.52C128.47 164.272 128.47 166.028 128.56 167.78C128.553 167.8 128.541 167.817 128.524 167.83C128.506 167.842 128.486 167.849 128.465 167.849C128.444 167.849 128.423 167.842 128.406 167.83C128.389 167.817 128.376 167.8 128.37 167.78C128.085 166.037 128.102 164.257 128.42 162.52Z" fill="white"/>
<path d="M113.1 169.61C113.565 169.963 113.997 170.358 114.39 170.79C114.39 170.85 114.39 170.96 114.29 170.91C113.831 170.539 113.406 170.127 113.02 169.68C113 169.63 113 169.56 113.1 169.61Z" fill="white"/>
<path d="M109.24 178L109.94 178.48C110.04 178.54 109.94 178.69 109.86 178.62L109.19 178.1C109.13 178.08 109.18 178 109.24 178Z" fill="white"/>
<path d="M126.45 188C128.54 188.77 130.98 189.28 132.22 191.33C132.242 191.366 132.276 191.393 132.316 191.407C132.357 191.42 132.4 191.419 132.44 191.404C132.479 191.388 132.512 191.359 132.532 191.322C132.552 191.285 132.559 191.242 132.55 191.2C132.21 189.6 134.27 181.2 132.98 181.02C132.2 180.9 131.76 183.28 130.67 183.11C130.21 183.04 129.67 182.29 129.34 181.98C128.918 181.56 128.47 181.165 128 180.8C127.56 180.47 126.92 180.17 126.43 180.57C125.94 180.97 126.1 181.95 126.28 182.57C126.46 183.19 126.63 183.57 126.81 184C126.99 184.43 127.49 185.35 126.56 185.44C125.758 185.371 124.95 185.439 124.17 185.64C122.38 186.39 125.82 187.74 126.45 188Z" fill="#455A64"/>
<path d="M148.53 215.6H148.45L147.02 215.39C146.76 215.39 146.49 215.39 146.23 215.39C145.86 214.39 145.45 213.51 145.01 212.6C144.78 212.1 144.53 211.6 144.28 211.1C143.44 209.46 142.533 207.873 141.56 206.34C138.42 201.34 135.1 196.56 132.34 191.43C131.467 189.81 130.66 188.143 129.92 186.43C129.86 186.31 129.82 186.19 129.77 186.08C129.57 185.59 129.36 185.08 129.17 184.58C129.17 184.46 129.31 184.38 129.37 184.5C129.52 184.87 129.68 185.23 129.86 185.6C129.86 185.7 129.95 185.8 129.99 185.89C129.99 185.89 130.07 186.07 130.12 186.16C130.832 187.642 131.63 189.081 132.51 190.47C134.89 194.31 137.74 197.9 140.44 201.57C140.64 201.84 140.84 202.11 141.03 202.39C142.785 204.736 144.386 207.195 145.82 209.75C146.862 211.633 147.767 213.588 148.53 215.6Z" fill="#455A64"/>
<path d="M145.85 212.42C145.85 212.42 139.85 206.92 135.75 205.42C131.65 203.92 124.42 204.17 124.42 204.17C126.867 207.407 130.17 209.896 133.957 211.354C137.745 212.812 141.864 213.181 145.85 212.42Z" fill="#455A64"/>
<path d="M140.65 202.82C140.65 202.82 139.25 194.82 140.21 190.55C141.17 186.28 145.27 180.33 145.27 180.33C146.678 184.136 146.991 188.26 146.174 192.235C145.358 196.21 143.444 199.877 140.65 202.82Z" fill="#455A64"/>
<path d="M146.09 152.26C147.37 151.95 148.22 154.64 148.45 155.47C148.974 157.678 148.705 160 147.69 162.03C147.65 162.187 147.582 162.336 147.49 162.47C147.49 162.47 147.49 162.47 147.49 162.53L147.36 162.66C147.301 162.713 147.23 162.75 147.152 162.765C147.075 162.781 146.995 162.776 146.92 162.75C145.27 162.03 145.35 159.67 145.37 158.21C145.33 157.31 144.58 152.63 146.09 152.26Z" fill="#FF725E"/>
<g style="mix-blend-mode:multiply" opacity="0.2">
<path d="M146.09 152.26C147.37 151.95 148.22 154.64 148.45 155.47C148.974 157.678 148.705 160 147.69 162.03C147.65 162.187 147.582 162.336 147.49 162.47C147.49 162.47 147.49 162.47 147.49 162.53L147.36 162.66C147.301 162.713 147.23 162.75 147.152 162.765C147.075 162.781 146.995 162.776 146.92 162.75C145.27 162.03 145.35 159.67 145.37 158.21C145.33 157.31 144.58 152.63 146.09 152.26Z" fill="#222221"/>
</g>
<path d="M137.55 166.54C136.77 168.73 138.23 170.85 139.55 172.41C140.06 173.01 141.61 174.71 142.27 173.84C142.321 173.849 142.375 173.839 142.419 173.812C142.463 173.784 142.496 173.74 142.51 173.69C142.71 172.812 142.608 171.893 142.22 171.08C141.71 169.7 141.22 168.27 140.57 166.93C139.92 165.59 138.25 164.62 137.55 166.54Z" fill="#FF725E"/>
<g style="mix-blend-mode:multiply" opacity="0.2">
<path d="M137.55 166.54C136.77 168.73 138.23 170.85 139.55 172.41C140.06 173.01 141.61 174.71 142.27 173.84C142.321 173.849 142.375 173.839 142.419 173.812C142.463 173.784 142.496 173.74 142.51 173.69C142.71 172.812 142.608 171.893 142.22 171.08C141.71 169.7 141.22 168.27 140.57 166.93C139.92 165.59 138.25 164.62 137.55 166.54Z" fill="#222221"/>
</g>
<path d="M163.71 189.66C162.907 192.902 161.037 195.78 158.4 197.83C158.528 201.204 158.253 204.581 157.58 207.89C157.18 208.18 156.81 208.5 156.45 208.82C156.63 207.96 156.78 207.11 156.91 206.24C156.913 206.213 156.913 206.187 156.91 206.16C151.5 203.31 149.08 197.8 147.05 192.23C147.21 192.23 155.61 195.75 157.16 204.75C157.635 200.488 157.524 196.182 156.83 191.95C154.55 185.29 148.83 180.54 143.29 176.16C142.284 175.493 141.435 174.616 140.8 173.59C140.758 173.521 140.725 173.447 140.7 173.37C140.48 172.84 140.21 171.69 140.92 171.37C141.63 171.05 142.2 171.94 142.55 172.43C142.606 172.503 142.656 172.58 142.7 172.66C143.7 174.04 144.59 175.49 145.47 176.93C147.563 178.493 149.538 180.208 151.38 182.06C153.29 183.984 154.898 186.185 156.15 188.59C156.06 188.23 155.99 187.87 155.9 187.5C154.507 182.377 152.492 177.444 149.9 172.81C148.743 170.823 147.74 168.75 146.9 166.61C146.308 165.101 145.986 163.5 145.95 161.88C145.963 161.489 146.03 161.102 146.15 160.73C146.42 159.9 147.15 159.52 147.72 160.35C147.923 160.69 148.043 161.074 148.07 161.47C148.15 162.24 148.07 163.1 148.07 163.67C148.16 165.14 148.23 166.62 148.28 168.1C148.76 169.1 149.28 170.01 149.82 170.95C152.82 175.878 155.173 181.171 156.82 186.7C157.474 189.087 157.945 191.521 158.23 193.98C158.444 192.043 158.815 190.127 159.34 188.25C160.11 185.46 163.39 180.6 163.42 180.58C164.306 183.53 164.406 186.66 163.71 189.66Z" fill="#455A64"/>
<g style="mix-blend-mode:multiply" opacity="0.1">
<path d="M126.3 231.1C127.004 227.412 128.851 224.039 131.58 221.46C133.594 219.484 135.971 217.915 138.58 216.84L139.88 216.3L141.26 215.89C143.117 215.376 145.052 215.203 146.97 215.38L148.4 215.58C148.87 215.65 149.33 215.81 149.79 215.92L150.48 216.11L151.15 216.36C151.58 216.54 152.04 216.69 152.46 216.91C155.83 218.527 158.709 221.012 160.8 224.11C158.249 221.578 155.225 219.574 151.9 218.21C148.666 216.919 145.099 216.719 141.74 217.64C138.343 218.585 135.187 220.241 132.48 222.5C129.742 224.813 127.619 227.768 126.3 231.1Z" fill="#222221"/>
<path d="M177.64 205.89C175.068 205.514 172.464 205.41 169.87 205.58C167.343 205.733 164.854 206.273 162.49 207.18C160.147 208.12 157.992 209.475 156.13 211.18C154.251 212.977 152.592 214.991 151.19 217.18C151.984 214.593 153.325 212.206 155.12 210.18C156.039 209.162 157.069 208.25 158.19 207.46C159.333 206.695 160.549 206.045 161.82 205.52C166.949 203.619 172.613 203.762 177.64 205.92V205.89Z" fill="#222221"/>
<path d="M117 218.07C118.162 217.218 119.514 216.662 120.94 216.45C122.394 216.197 123.887 216.268 125.31 216.66C126.742 217.038 128.063 217.754 129.16 218.75C129.708 219.225 130.195 219.766 130.61 220.36C131.001 220.951 131.336 221.577 131.61 222.23C131 221.83 130.51 221.36 129.95 220.98C129.42 220.588 128.869 220.224 128.3 219.89C127.212 219.235 126.037 218.737 124.81 218.41C123.574 218.073 122.301 217.889 121.02 217.86C119.677 217.839 118.334 217.909 117 218.07Z" fill="#222221"/>
</g>
<g style="mix-blend-mode:multiply" opacity="0.1">
<path d="M178.59 251.08C180.674 249.799 182.976 248.911 185.38 248.46C187.81 247.979 190.302 247.891 192.76 248.2C193.987 248.372 195.199 248.629 196.39 248.97C197.567 249.36 198.711 249.845 199.81 250.42C201.983 251.552 203.923 253.081 205.53 254.93C203.523 253.678 201.412 252.6 199.22 251.71C198.142 251.286 197.04 250.925 195.92 250.63C194.804 250.351 193.672 250.14 192.53 250C190.229 249.703 187.902 249.656 185.59 249.86C183.227 250.073 180.886 250.481 178.59 251.08Z" fill="#222221"/>
<path d="M197.06 265C198.431 261.102 200.892 257.68 204.15 255.14C207.441 252.549 211.355 250.869 215.5 250.27C219.647 249.585 223.903 250.095 227.77 251.74C229.676 252.572 231.436 253.707 232.98 255.1C234.519 256.451 235.809 258.062 236.79 259.86C235.529 258.307 234.058 256.938 232.42 255.79C230.828 254.642 229.085 253.72 227.24 253.05C225.413 252.397 223.505 251.993 221.57 251.85C221.089 251.792 220.604 251.768 220.12 251.78H218.67C217.67 251.89 216.73 251.93 215.77 252.09L214.33 252.34C214.09 252.34 213.85 252.42 213.61 252.48L212.91 252.67L211.51 253.06C211.05 253.22 210.6 253.41 210.14 253.57C209.23 253.913 208.342 254.31 207.48 254.76C206.65 255.27 205.77 255.71 204.99 256.29C201.725 258.559 199.014 261.537 197.06 265Z" fill="#222221"/>
<path d="M236.79 259.84C235.529 258.287 234.058 256.918 232.42 255.77C230.83 254.621 229.086 253.702 227.24 253.04C225.418 252.38 223.513 251.973 221.58 251.83C221.096 251.772 220.608 251.749 220.12 251.76H218.67C217.67 251.87 216.73 251.89 215.77 252.06L214.33 252.31C214.09 252.31 213.85 252.39 213.61 252.45L212.91 252.65L211.5 253.04C211.05 253.18 210.6 253.38 210.14 253.55C209.357 253.827 208.595 254.161 207.86 254.55L207.48 254.73L206.57 255.25C206.027 255.556 205.499 255.89 204.99 256.25C201.722 258.525 199.012 261.509 197.06 264.98C198.427 261.083 200.889 257.664 204.15 255.13C204.728 254.646 205.336 254.198 205.97 253.79C206.37 253.54 206.78 253.29 207.19 253.06C209.777 251.653 212.589 250.705 215.5 250.26C219.646 249.564 223.904 250.071 227.77 251.72C229.673 252.553 231.429 253.688 232.97 255.08C234.515 256.428 235.808 258.04 236.79 259.84Z" fill="#222221"/>
</g>
<path d="M182.64 223.73C184.857 225.584 187.196 227.288 189.64 228.83C190.784 229.653 191.991 230.386 193.25 231.02C193.95 231.354 194.736 231.462 195.5 231.33C195.918 231.329 196.321 231.172 196.63 230.89C196.7 230.832 196.752 230.756 196.78 230.67C198.08 229.85 198.7 228.3 199.31 226.86C200.534 223.989 201.459 221 202.07 217.94C202.29 216.83 202.75 215.4 202.43 214.26C202.22 213.57 201.85 213.44 201.43 212.99C200.43 211.94 200.56 210.83 199.9 209.62C199.761 209.282 199.531 208.988 199.237 208.772C198.942 208.555 198.594 208.423 198.23 208.39C196.38 208.39 195.95 211.95 195.62 213.2C194.928 215.788 194.46 218.431 194.22 221.1C193.951 223.504 193.898 225.927 194.06 228.34C192.296 224.296 189.959 220.527 187.12 217.15C186.12 215.93 184.5 213.93 182.67 214.23C181.93 214.35 181.91 214.89 181.39 215.23C180.29 215.85 179.39 214.85 178.31 215.18C174.26 216.35 181.48 222.77 182.64 223.73Z" fill="#FF725E"/>
<g style="mix-blend-mode:multiply" opacity="0.3">
<path d="M182.64 223.73C184.857 225.584 187.196 227.288 189.64 228.83C190.784 229.653 191.991 230.386 193.25 231.02C193.95 231.354 194.736 231.462 195.5 231.33C195.918 231.329 196.321 231.172 196.63 230.89C196.7 230.832 196.752 230.756 196.78 230.67C198.08 229.85 198.7 228.3 199.31 226.86C200.534 223.989 201.459 221 202.07 217.94C202.29 216.83 202.75 215.4 202.43 214.26C202.22 213.57 201.85 213.44 201.43 212.99C200.43 211.94 200.56 210.83 199.9 209.62C199.761 209.282 199.531 208.988 199.237 208.772C198.942 208.555 198.594 208.423 198.23 208.39C196.38 208.39 195.95 211.95 195.62 213.2C194.928 215.788 194.46 218.431 194.22 221.1C193.951 223.504 193.898 225.927 194.06 228.34C192.296 224.296 189.959 220.527 187.12 217.15C186.12 215.93 184.5 213.93 182.67 214.23C181.93 214.35 181.91 214.89 181.39 215.23C180.29 215.85 179.39 214.85 178.31 215.18C174.26 216.35 181.48 222.77 182.64 223.73Z" fill="#222221"/>
</g>
<path d="M187.65 210.83C189.37 216.7 191.44 222.46 193.06 228.36C193.11 228.5 193.36 228.44 193.32 228.3C192.19 222.95 190.32 217.82 188.69 212.61C187.815 210.042 187.268 207.375 187.06 204.67C186.97 202.83 187.15 201.18 186.16 199.6C186.122 199.531 186.066 199.474 185.998 199.434C185.931 199.394 185.854 199.373 185.775 199.373C185.696 199.373 185.619 199.394 185.551 199.434C185.484 199.474 185.428 199.531 185.39 199.6C184.39 201.22 185.96 204.02 186.76 205.83C186.883 207.523 187.181 209.199 187.65 210.83Z" fill="#263238"/>
<path d="M198.37 212C199.43 217.3 198.91 222.77 198.61 228.12C198.61 228.147 198.621 228.172 198.639 228.191C198.658 228.209 198.684 228.22 198.71 228.22C198.737 228.22 198.762 228.209 198.781 228.191C198.799 228.172 198.81 228.147 198.81 228.12C199.99 221.12 199.68 213.12 197.08 206.46C196.85 205.87 195.28 202.2 194.22 203.14C193.66 203.65 194.51 204.78 194.78 205.14C195.782 206.333 196.719 207.578 197.59 208.87C197.94 210 198.18 211 198.37 212Z" fill="#263238"/>
<path d="M178.53 210.22C178.602 212.678 179.149 215.099 180.14 217.35C182.248 222.114 185.257 226.427 189 230.05C189.08 230.13 189.23 229.99 189.15 229.9C185.77 226.03 182.46 222.03 180.51 217.21C179.993 215.962 179.588 214.67 179.3 213.35C179.3 213.26 179.25 213.15 179.22 213.04C179.19 212.93 179.22 213.04 179.22 212.97C179.291 211.488 179.529 210.019 179.93 208.59C180.1 207.92 180.34 206.76 179.84 206.59C178.59 206.73 178.54 209.33 178.53 210.22Z" fill="#263238"/>
<path d="M178.06 227.25C182.8 231.09 188.91 233.17 194.06 236.4C195.23 237.14 196.37 237.93 197.5 238.74C197.841 239.018 198.198 239.275 198.57 239.51C198.802 239.651 199.069 239.724 199.34 239.72C199.456 239.728 199.572 239.711 199.68 239.67C199.873 239.597 200.047 239.479 200.186 239.326C200.325 239.173 200.425 238.989 200.48 238.79C200.732 237.964 200.847 237.103 200.82 236.24C201.06 235.35 201.37 234.47 201.6 233.69C201.933 232.537 202.293 231.397 202.68 230.27C203.51 227.86 204.56 225.56 205.61 223.27C206.58 221.335 207.254 219.265 207.61 217.13C207.76 215.99 207.98 213.85 207.11 212.93C206.24 212.01 205.56 212.6 205.11 213.37C204.66 214.14 204.48 215.01 204.11 215.76C203.49 216.91 202.75 216.9 201.81 217.52C201.238 217.975 200.768 218.546 200.434 219.196C200.099 219.846 199.907 220.56 199.87 221.29C199.73 222.45 199.66 223.63 199.61 224.8C199.45 223.7 199.25 222.62 199.03 221.55C198.64 219.63 198.34 217.26 197.25 215.55C196.908 214.995 196.443 214.526 195.89 214.18C194.68 213.59 193.645 212.694 192.89 211.58C192.14 210.39 191.28 208.33 189.61 208.29C187.94 208.25 187.82 209.92 187.5 211.12C186.9 213.35 184.83 214.25 184.82 216.79C184.82 218.86 185.9 220.84 186.87 222.6C187.627 223.988 188.476 225.324 189.41 226.6C188.064 225.426 186.568 224.437 184.96 223.66C184.282 223.257 183.509 223.043 182.72 223.04C181.57 223.14 181.38 223.83 180.02 223.42C179.02 223.12 176.86 221.95 176.02 223.32C175.18 224.69 177.13 226.49 178.06 227.25Z" fill="#FF725E"/>
<g style="mix-blend-mode:multiply" opacity="0.1">
<path d="M178.06 227.25C182.8 231.09 188.91 233.17 194.06 236.4C195.23 237.14 196.37 237.93 197.5 238.74C197.841 239.018 198.198 239.275 198.57 239.51C198.802 239.651 199.069 239.724 199.34 239.72C199.456 239.728 199.572 239.711 199.68 239.67C199.873 239.597 200.047 239.479 200.186 239.326C200.325 239.173 200.425 238.989 200.48 238.79C200.732 237.964 200.847 237.103 200.82 236.24C201.06 235.35 201.37 234.47 201.6 233.69C201.933 232.537 202.293 231.397 202.68 230.27C203.51 227.86 204.56 225.56 205.61 223.27C206.58 221.335 207.254 219.265 207.61 217.13C207.76 215.99 207.98 213.85 207.11 212.93C206.24 212.01 205.56 212.6 205.11 213.37C204.66 214.14 204.48 215.01 204.11 215.76C203.49 216.91 202.75 216.9 201.81 217.52C201.238 217.975 200.768 218.546 200.434 219.196C200.099 219.846 199.907 220.56 199.87 221.29C199.73 222.45 199.66 223.63 199.61 224.8C199.45 223.7 199.25 222.62 199.03 221.55C198.64 219.63 198.34 217.26 197.25 215.55C196.908 214.995 196.443 214.526 195.89 214.18C194.68 213.59 193.645 212.694 192.89 211.58C192.14 210.39 191.28 208.33 189.61 208.29C187.94 208.25 187.82 209.92 187.5 211.12C186.9 213.35 184.83 214.25 184.82 216.79C184.82 218.86 185.9 220.84 186.87 222.6C187.627 223.988 188.476 225.324 189.41 226.6C188.064 225.426 186.568 224.437 184.96 223.66C184.282 223.257 183.509 223.043 182.72 223.04C181.57 223.14 181.38 223.83 180.02 223.42C179.02 223.12 176.86 221.95 176.02 223.32C175.18 224.69 177.13 226.49 178.06 227.25Z" fill="#222221"/>
</g>
<path d="M203.78 222.81C203.78 222.81 203.78 222.88 203.78 222.87C203.78 222.86 203.74 222.79 203.78 222.81Z" fill="#F1D1C5"/>
<path d="M182.41 227.81C187 232 196.12 233 198.6 239.23V239.51C198.832 239.651 199.099 239.724 199.37 239.72C200.5 237.9 200.51 235.65 200.81 233.54C201.188 230.337 201.971 227.196 203.14 224.19C203.14 224.11 203.06 224.06 203.01 224.14C201.87 226.414 201.059 228.838 200.6 231.34C200.09 233.85 200.24 237.06 199.06 239.42C199.055 239.333 199.055 239.247 199.06 239.16C199.58 236.28 198.92 233.16 198.2 230.43C197.27 226.86 195.88 223.43 194.64 219.98C194.64 219.84 194.39 219.98 194.43 220.08C195.43 223.45 196.54 226.82 197.43 230.22C198.042 232.296 198.458 234.426 198.67 236.58C196.93 229.43 189.85 224.22 188.67 216.86C188.662 216.83 188.644 216.804 188.62 216.786C188.595 216.767 188.566 216.757 188.535 216.757C188.504 216.757 188.475 216.767 188.45 216.786C188.426 216.804 188.408 216.83 188.4 216.86C189.56 224.67 196.72 230.16 198.4 237.71C198.032 237.05 197.571 236.447 197.03 235.92C195.992 234.45 194.742 233.143 193.32 232.04C191 230.24 188.32 229.1 186.11 227.14C186.03 227.06 185.91 227.14 185.98 227.28C187.59 229.28 189.98 230.28 192.03 231.7C193.272 232.543 194.419 233.519 195.45 234.61C194.786 234.14 194.095 233.709 193.38 233.32C189.8 231.32 185.95 229.96 182.55 227.57C182.534 227.561 182.517 227.555 182.499 227.552C182.481 227.55 182.462 227.551 182.445 227.556C182.409 227.565 182.379 227.588 182.36 227.62C182.341 227.652 182.336 227.69 182.346 227.725C182.355 227.761 182.378 227.791 182.41 227.81Z" fill="white"/>
<path d="M204.84 218.87C204.845 219.681 204.653 220.48 204.28 221.2C204.28 221.26 204.15 221.2 204.17 221.2C204.403 220.459 204.55 219.694 204.61 218.92C204.63 218.75 204.83 218.73 204.84 218.87Z" fill="white"/>
<path d="M188.62 214.34C188.62 214.78 188.55 215.23 188.55 215.68C188.55 215.82 188.34 215.81 188.31 215.68C188.186 215.226 188.204 214.744 188.36 214.3C188.41 214.2 188.61 214.19 188.62 214.34Z" fill="white"/>
<path d="M180.67 225.85C180.871 226.007 181.062 226.177 181.24 226.36C181.252 226.376 181.259 226.394 181.26 226.414C181.261 226.433 181.257 226.453 181.248 226.47C181.238 226.487 181.224 226.5 181.206 226.509C181.189 226.518 181.169 226.522 181.15 226.52C180.875 226.454 180.635 226.286 180.48 226.05C180.38 225.93 180.55 225.74 180.67 225.85Z" fill="white"/>
<path d="M201.76 236.47C201.23 238.47 200.39 240.47 201.03 242.63C201.09 242.81 200.9 242.94 200.8 242.78C200 241.55 193.98 237.88 194.47 236.84C194.76 236.21 196.41 237.36 196.82 236.47C196.924 235.928 196.924 235.372 196.82 234.83C196.82 234.28 196.75 233.72 196.76 233.17C196.77 232.62 196.89 232.02 197.36 231.91C197.83 231.8 198.36 232.52 198.62 233.01C198.88 233.5 199.03 233.84 199.23 234.26C199.43 234.68 199.72 235.58 200.23 234.97C200.74 234.36 200.9 233.74 201.48 233.39C202.73 232.59 201.92 235.87 201.76 236.47Z" fill="#455A64"/>
<path d="M207.19 253.06C206.78 253.29 206.37 253.54 205.97 253.79L205.91 253.64C204.58 250.64 202.98 247.7 201.63 244.64C200.361 241.72 199.477 238.648 199 235.5C200 241.09 203.65 246.22 206.22 251.18C206.58 251.78 206.9 252.42 207.19 253.06Z" fill="#455A64"/>
<path d="M205.27 251.78C205.27 251.78 204.47 243.2 205.86 238.78C207.25 234.36 212.1 228.41 212.1 228.41C213.253 232.555 213.224 236.939 212.017 241.069C210.811 245.198 208.474 248.908 205.27 251.78Z" fill="#455A64"/>
<path d="M328.78 387.07C330.62 387.68 382.97 387.53 384.96 386.26C385.71 385.79 386.14 378.16 386.39 368.93C386.443 366.93 386.487 364.883 386.52 362.79C386.52 360.31 386.59 357.79 386.6 355.37C386.67 344.44 386.52 334.81 386.52 334.81H352.43V355.37V362.79L352.61 368.93C352.61 368.93 332.61 377.93 330.55 379.58C328.49 381.23 327 386.47 328.78 387.07Z" fill="#F7A9A0"/>
<path d="M386.44 366.92C386.44 367.6 386.44 368.27 386.39 368.92C386.14 378.15 385.71 385.78 384.96 386.25C382.96 387.52 330.62 387.67 328.78 387.06C326.94 386.45 328.56 381.19 330.58 379.57C331.67 378.7 337.91 375.71 343.47 373.12C341.78 374.64 339.47 376.95 340.11 377.77C341.79 379.99 375.69 375.34 384.88 367.95C385.361 367.551 385.884 367.205 386.44 366.92Z" fill="#263238"/>
<path d="M397.88 189.58C397.88 189.58 388.67 280.68 388.46 281.83C388.46 281.98 388.36 283.74 388.27 286.59C387.77 302.28 386.55 351.18 386.55 351.18H349C349 351.18 351.45 293.26 352.86 279.75C354.65 262.51 365.96 189.58 365.96 189.58H397.88Z" fill="#37474F"/>
<path d="M384 285C385.16 265.26 386.903 245.567 389.23 225.92C390.55 214.86 392.14 203.83 393.72 192.79C393.72 192.7 393.88 192.7 393.87 192.79C390.96 212.43 388.87 232.22 387.13 251.99C385.39 271.76 384.13 291.53 383.31 311.33C382.85 322.56 382.5 333.79 382.14 345.01C382.14 345.066 382.118 345.119 382.078 345.158C382.039 345.198 381.986 345.22 381.93 345.22C381.874 345.22 381.821 345.198 381.781 345.158C381.742 345.119 381.72 345.066 381.72 345.01C382.22 325 382.8 305 384 285Z" fill="#263238"/>
<path d="M351.34 345.12C352.34 344.99 363.76 344.82 368.15 344.82C371.9 344.82 383.67 345.12 384.96 345.11C385.06 345.11 385.05 345.21 384.96 345.23C383.42 345.47 376.72 345.65 369.53 345.65C365.15 345.65 351.91 345.34 351.34 345.27C351.325 345.264 351.311 345.254 351.302 345.241C351.293 345.227 351.288 345.211 351.288 345.195C351.288 345.179 351.293 345.163 351.302 345.149C351.311 345.136 351.325 345.126 351.34 345.12Z" fill="#263238"/>
<path d="M397.88 189.58C397.88 189.58 388.67 280.68 388.46 281.83C388.46 281.98 388.36 283.74 388.27 286.59L370.55 189.59L397.88 189.58Z" fill="#263238"/>
<path d="M400.2 387.42C402.13 387.53 452.65 373.81 454.2 372.07C454.81 371.41 453.2 363.94 451.09 354.96C450.63 353.02 450.22 350.96 449.62 348.96C448.87 346.45 448.09 343.96 447.3 341.53C443.93 331.06 440.68 322.39 440.68 322.39L408.68 330.98L414.38 349.98L416.71 357.78L418.47 363.67C418.47 363.67 401.47 377.57 399.93 379.67C398.39 381.77 398.28 387.3 400.2 387.42Z" fill="#F7A9A0"/>
<path d="M454.24 372.07C452.65 373.81 402.13 387.53 400.19 387.42C398.25 387.31 398.46 381.8 399.99 379.71C400.93 378.44 407.54 372.82 412.6 368.61C411.14 370.33 408.86 373.26 409.6 374.03C411.54 375.94 443.01 367.03 451.94 358.54C453.66 365.85 454.76 371.5 454.24 372.07Z" fill="#263238"/>
<path d="M365.93 189.58C365.93 189.58 368.41 202.73 377.59 209.43C377.59 209.43 390.52 280.52 392.15 288.56C395.31 304.19 408.62 348.8 408.62 348.8L447 337.08C447 337.08 430.44 283.24 428.22 277.59C427.01 274.51 417.73 215.59 417.92 214.2C420.18 197.37 412.19 189.49 412.19 189.49L365.93 189.58Z" fill="#37474F"/>
<path d="M396.36 192.51C397.125 195.156 398.742 197.476 400.96 199.11C403.408 200.851 406.309 201.844 409.31 201.97C409.81 201.97 409.85 202.78 409.31 202.78C403.19 202.78 396.99 198.9 396.1 192.55C396.09 192.4 396.32 192.37 396.36 192.51Z" fill="#263238"/>
<path d="M371.71 205.26C373.932 206.154 376.054 207.28 378.04 208.62C380.14 209.92 382.04 211.44 384.12 212.85C384.131 212.863 384.138 212.879 384.139 212.896C384.141 212.913 384.137 212.93 384.128 212.944C384.119 212.959 384.105 212.97 384.09 212.977C384.074 212.983 384.056 212.984 384.04 212.98C381.92 211.76 379.7 210.69 377.59 209.43C375.474 208.279 373.466 206.941 371.59 205.43C371.55 205.36 371.62 205.23 371.71 205.26Z" fill="#263238"/>
<path d="M370.85 192.49C371.18 193.89 371.58 195.27 371.95 196.67C372.32 198.07 372.57 199.31 372.95 200.6C373.295 201.851 373.988 202.978 374.95 203.85C375.49 204.3 376.08 204.7 376.65 205.12L377.65 205.78C377.65 205.6 377.56 205.41 377.51 205.22C377.39 204.69 377.28 204.15 377.16 203.62C376.91 202.44 376.66 201.25 376.43 200.06C375.96 197.73 375.52 195.37 374.93 193.06C374.93 193.041 374.937 193.024 374.95 193.01C374.964 192.997 374.981 192.99 375 192.99C375.019 192.99 375.036 192.997 375.049 193.01C375.063 193.024 375.07 193.041 375.07 193.06C375.76 195.34 376.51 197.59 377.13 199.89C377.43 201.01 378.58 206.6 378.64 207C378.7 207.4 378.75 207.82 378.78 208.23C378.855 208.646 378.875 209.069 378.84 209.49C378.84 209.6 378.7 209.59 378.65 209.49C378.463 209.109 378.325 208.706 378.24 208.29C378.12 207.89 378.01 207.49 377.92 207.08L377.83 206.64C377.26 206.32 376.72 205.9 376.19 205.55C375.66 205.2 375.03 204.8 374.48 204.38C373.466 203.601 372.71 202.534 372.31 201.32C371.912 200.014 371.628 198.675 371.46 197.32C371.21 195.73 371.01 194.13 370.71 192.55C370.69 192.43 370.83 192.39 370.85 192.49Z" fill="#263238"/>
<path d="M409.93 340.74C410.84 340.33 421.73 336.84 425.93 335.56C429.53 334.47 440.87 331.32 442.1 330.94C442.19 330.94 442.22 331.01 442.1 331.05C440.7 331.73 434.35 333.85 427.47 335.94C423.27 337.22 410.52 340.79 409.95 340.89C409.934 340.887 409.919 340.878 409.907 340.866C409.896 340.854 409.889 340.839 409.886 340.822C409.884 340.806 409.887 340.789 409.895 340.774C409.903 340.759 409.915 340.747 409.93 340.74Z" fill="#263238"/>
<path d="M430.69 301.18C429.17 296.76 427.63 292.35 426.14 287.92C424.667 283.572 423.481 279.133 422.59 274.63C420.76 265.45 419.18 256.2 417.69 246.95C416.943 242.283 416.233 237.59 415.56 232.87C415.24 230.55 414.923 228.217 414.61 225.87C414.31 223.61 413.94 221.36 413.82 219.08C413.36 210.66 416.36 201.76 412.7 193.72C412.29 192.823 411.787 191.972 411.2 191.18C411.15 191.11 411.03 191.18 411.08 191.26C415.96 198.89 413.28 208.16 413.14 216.57C413.23 221.178 413.681 225.772 414.49 230.31C415.156 234.91 415.846 239.503 416.56 244.09C417.98 253.297 419.547 262.483 421.26 271.65C422.009 276.158 423.03 280.616 424.32 285C425.71 289.42 427.32 293.78 428.82 298.16C431.9 307.01 439.82 329.16 440.21 330.28C440.21 330.37 440.4 330.33 440.36 330.23C437.36 321.35 433.75 310.08 430.69 301.18Z" fill="#263238"/>
<path d="M381.42 140.72C372.62 150.01 351.25 160.34 344.2 160.34C336.2 160.34 322.66 149.19 312.5 139.79C310.27 137.73 324.01 117.51 326.5 119.63C332.65 124.94 347.05 139.44 349.28 139.79C352.54 140.3 365.68 136.79 376.09 133.85C387.63 130.56 385.89 136 381.42 140.72Z" fill="#F7A9A0"/>
<path d="M319.69 141.8C322.56 141.8 329.9 124.38 328.45 121.8C327.881 120.989 327.209 120.256 326.45 119.62C324.679 115.944 323.453 112.029 322.81 108C322.2 103.16 321.86 95.91 319.24 96.14C315.43 96.46 314.77 105.69 314.71 111.01C312.21 109.56 309.92 108.55 308.37 108.45C303.22 108.12 298.83 130.92 302.71 134.45C306.59 137.98 316.82 141.81 319.69 141.8Z" fill="#F7A9A0"/>
<path d="M297.09 138.81C297.09 138.81 302.78 139.81 305.58 136.88C314.32 127.74 304.41 99.19 299.58 100.35C294.75 101.51 290.09 119.58 290.09 119.58L297.09 138.81ZM297.31 136.02L291.86 121.02C291.86 121.02 295.72 105.29 299.47 104.39C303.22 103.49 310.72 127.39 303.91 134.5C301.73 136.81 297.31 136 297.31 136V136.02Z" fill="#37474F"/>
<path d="M249.52 124.59L251.27 133.46L243.69 137.87L249.52 124.59Z" fill="#455A64"/>
<path d="M278.27 159.6L308 146.44L283.67 104.58L264.67 113.19L278.27 159.6Z" fill="#455A64"/>
<path d="M283.67 104.58L285.29 100.02L260.8 110.56L264.67 113.19L283.67 104.58Z" fill="#37474F"/>
<path d="M271.49 136.45L274.68 147.35L249.41 134.52L250.88 131.43L271.49 136.45Z" fill="#37474F"/>
<path d="M247 128.63C244.21 125.93 238.17 125.7 238.14 128.26C238.14 129.67 240.3 130.07 242.94 129.07C244.235 128.584 245.631 128.433 247 128.63Z" fill="#EBEBEB"/>
<path d="M242.88 137.71C240.64 138.71 239.04 142.12 240.51 142.71C241.33 143.06 242.09 141.9 242.15 140.13C242.189 139.275 242.439 138.443 242.88 137.71Z" fill="#EBEBEB"/>
<path d="M243.74 133C242.276 132.71 240.767 132.726 239.309 133.048C237.851 133.37 236.476 133.99 235.27 134.87C232.12 137.15 230.27 141.87 233.27 143.04C234.43 143.53 236.07 142.54 237.34 140.68C239.27 137.81 240.37 134.12 243.74 133Z" fill="#EBEBEB"/>
<path d="M316.19 110.52C316.96 113.09 313.49 112.52 313.49 112.52C313.49 112.52 318.28 114.52 318.04 117.52C317.8 120.52 313.64 119.52 313.34 119.52C313.6 119.63 317.95 121.61 317.41 124.52C316.87 127.43 312.8 126.02 312.54 125.92C312.75 126.1 315.43 128.5 314.54 130.64C312.95 134.32 305.92 128.37 302.7 128.78C302.7 128.78 302.77 134.31 302.7 134.47C302.7 134.47 295.9 128.95 295.59 124.57C295.54 123.929 295.712 123.291 296.076 122.762C296.44 122.232 296.974 121.843 297.59 121.66C297.59 121.66 295.2 120.13 295.59 117.79C295.77 116.6 297.85 115.79 297.85 115.79C297.328 115.414 296.92 114.902 296.669 114.309C296.419 113.716 296.336 113.066 296.43 112.43C296.78 110.79 298.82 110.27 298.82 110.27C298.82 110.27 297.61 108.18 298.51 106.62C300.26 103.47 314.56 105 316.19 110.52Z" fill="#F7A9A0"/>
<path d="M299.05 110.14C299.05 110.14 299 110.07 299.05 110.07C304.063 109.385 309.166 110.243 313.68 112.53C313.82 112.61 313.76 112.87 313.59 112.82C308.899 111.225 304.001 110.322 299.05 110.14Z" fill="#263238"/>
<path d="M297.71 115.75C297.71 115.75 297.71 115.66 297.71 115.65C303.245 114.953 308.847 116.262 313.5 119.34C313.66 119.45 313.7 119.71 313.5 119.59C310.25 117.65 302.36 115.86 297.71 115.75Z" fill="#263238"/>
<path d="M312.79 126.22C308.21 123.22 303.14 122.06 297.79 121.58C297.72 121.58 297.73 121.48 297.79 121.47C300.49 120.99 303.89 121.65 306.49 122.39C308.917 123.032 311.133 124.297 312.92 126.06C313 126.13 312.89 126.28 312.79 126.22Z" fill="#263238"/>
<path d="M313.57 112.48C313.74 112.57 313.42 112.72 313.57 112.82C314.27 113.22 318.28 116.05 317.74 117.71C317.31 119.04 315.21 119.38 314.36 119.2L312.21 118.74L314.07 119.92C314.9 120.436 315.64 121.084 316.26 121.84C316.566 122.173 316.798 122.567 316.941 122.996C317.084 123.425 317.135 123.88 317.09 124.33C317.048 124.75 316.861 125.142 316.562 125.439C316.263 125.736 315.87 125.92 315.45 125.96C314.511 126.037 313.567 125.871 312.71 125.48L310.3 124.48L312.24 126.2C312.78 126.677 313.257 127.222 313.66 127.82C314.064 128.373 314.294 129.035 314.32 129.72C314.322 130.027 314.238 130.329 314.077 130.59C313.916 130.852 313.685 131.063 313.41 131.2C312.747 131.417 312.035 131.437 311.36 131.26C309.896 130.905 308.461 130.437 307.07 129.86C306.36 129.59 305.64 129.32 304.91 129.08C304.191 128.801 303.42 128.681 302.65 128.73C303.409 128.768 304.153 128.955 304.84 129.28C305.54 129.57 306.23 129.89 306.92 130.21C308.3 130.904 309.743 131.463 311.23 131.88C312.029 132.12 312.881 132.12 313.68 131.88C314.103 131.704 314.465 131.407 314.721 131.026C314.977 130.646 315.116 130.199 315.12 129.74C315.108 128.892 314.844 128.067 314.36 127.37C313.924 126.696 313.403 126.081 312.81 125.54L312.34 126.26C313.348 126.743 314.466 126.95 315.58 126.86C316.195 126.798 316.768 126.522 317.2 126.08C317.61 125.633 317.875 125.071 317.96 124.47C318.022 123.899 317.961 123.321 317.779 122.776C317.598 122.23 317.302 121.73 316.91 121.31C316.215 120.489 315.391 119.786 314.47 119.23L314.18 119.95C315.27 120.15 317.65 120.02 318.58 118.04C319.43 115.29 314.51 112.86 313.57 112.48Z" fill="#263238"/>
<path d="M313.49 112.52C314.042 112.504 314.589 112.403 315.11 112.22C315.321 112.152 315.51 112.029 315.657 111.864C315.805 111.698 315.906 111.497 315.95 111.28C315.972 110.792 315.858 110.307 315.62 109.88C315.37 109.39 315.09 108.88 314.78 108.4C315.304 108.692 315.76 109.09 316.12 109.57C316.545 110.081 316.75 110.739 316.69 111.4C316.616 111.757 316.439 112.084 316.18 112.34C315.922 112.567 315.608 112.719 315.27 112.78C314.664 112.885 314.041 112.794 313.49 112.52Z" fill="#263238"/>
<path d="M328.19 120.19L319.19 152.45C319.19 152.45 336.09 161.01 343.25 161.16C350.41 161.31 371 151.78 382.17 140.68C386.48 136.39 387.17 130.53 376.64 133.11C366.11 135.69 351.59 138.65 350.49 138.43C349.39 138.21 328.19 120.19 328.19 120.19Z" fill="#EBEBEB"/>
<path d="M333.28 125.57C332.47 127.83 331.88 130.19 331.28 132.5C330.68 134.81 330.02 137.14 329.42 139.5C328.24 144.16 327.18 148.86 326.16 153.56C326.166 153.575 326.176 153.588 326.189 153.598C326.203 153.607 326.219 153.612 326.235 153.612C326.251 153.612 326.267 153.607 326.281 153.598C326.294 153.588 326.304 153.575 326.31 153.56C327.68 148.94 329 144.31 330.2 139.65C330.8 137.323 331.37 134.99 331.91 132.65C332.45 130.31 333.07 127.96 333.44 125.59C333.441 125.579 333.44 125.569 333.438 125.559C333.435 125.548 333.43 125.539 333.424 125.53C333.417 125.522 333.409 125.515 333.4 125.51C333.391 125.505 333.38 125.501 333.37 125.5C333.359 125.499 333.349 125.499 333.339 125.502C333.328 125.505 333.319 125.51 333.31 125.516C333.302 125.523 333.295 125.531 333.29 125.54C333.285 125.549 333.281 125.559 333.28 125.57Z" fill="#A6A6A6"/>
<path d="M366.66 169.83L364.31 194.26C364.31 194.26 405.54 192.83 415.31 191.66C415.31 191.66 403.43 146.79 392.31 135.84C386.75 130.37 380.57 131.1 376.82 135.3C375.82 136.36 364.71 152.7 363.75 158.78C362.94 164.15 366.66 169.83 366.66 169.83Z" fill="#FF725E"/>
<path d="M388.3 102.16C389.6 104.07 399.4 108.71 404.52 100.34C409.64 91.97 399.04 81.45 390.79 87.34C385.24 91.29 385.55 98.1 388.3 102.16Z" fill="#263238"/>
<path d="M387.53 134.32C387.26 135.13 382.81 140.16 379.03 139.64C377.8 139.46 378.44 132.71 378.44 132.71L378.38 132.2L377.45 125.06L386.14 120.54L387.39 119.95C387.39 119.95 387.52 121.95 387.65 124.37C387.65 124.49 387.65 124.6 387.65 124.72V125.12L387.71 126.23C387.71 126.52 387.71 126.79 387.71 127.09C387.71 127.39 387.71 127.68 387.71 127.98C387.796 130.095 387.736 132.213 387.53 134.32Z" fill="#F7A9A0"/>
<path d="M387.65 124.37C386.766 126.27 385.479 127.955 383.878 129.307C382.277 130.659 380.401 131.646 378.38 132.2L377.45 125.06L386.14 120.54L387.39 119.95C387.39 119.95 387.52 121.92 387.65 124.37Z" fill="#263238"/>
<path d="M369 113C366.72 125.42 373.9 128.19 376.58 128.68C379.01 129.12 387.34 130.32 390.9 118.21C394.46 106.1 389.4 101.1 383.9 99.79C378.4 98.48 371.23 100.6 369 113Z" fill="#F7A9A0"/>
<path d="M371.16 111.07C371.441 111.061 371.721 111.038 372 111C372.311 111.011 372.616 110.92 372.87 110.74C372.937 110.669 372.98 110.578 372.991 110.48C373.001 110.383 372.98 110.284 372.93 110.2C372.804 110.047 372.639 109.931 372.452 109.864C372.266 109.797 372.064 109.782 371.87 109.82C371.462 109.831 371.073 109.996 370.78 110.28C370.72 110.351 370.682 110.437 370.67 110.529C370.658 110.621 370.674 110.715 370.714 110.798C370.754 110.882 370.817 110.952 370.897 111C370.976 111.048 371.067 111.073 371.16 111.07Z" fill="#263238"/>
<path d="M379.49 112.3C379.2 112.23 378.95 112.12 378.66 112.02C378.355 111.965 378.077 111.811 377.87 111.58C377.819 111.495 377.799 111.396 377.811 111.298C377.824 111.2 377.869 111.109 377.94 111.04C378.097 110.92 378.284 110.843 378.481 110.819C378.678 110.794 378.877 110.822 379.06 110.9C379.451 111.004 379.79 111.25 380.01 111.59C380.057 111.671 380.079 111.763 380.074 111.857C380.07 111.95 380.038 112.04 379.982 112.115C379.927 112.191 379.851 112.248 379.764 112.281C379.676 112.314 379.581 112.32 379.49 112.3Z" fill="#263238"/>
<path d="M377.33 114.91C377.33 114.91 377.39 114.91 377.39 114.99C377.24 115.84 377.22 116.84 377.95 117.23C377 117 377.06 115.69 377.33 114.91Z" fill="#263238"/>
<path d="M378.21 114.12C379.6 114.21 379.33 116.97 378.05 116.89C376.77 116.81 377.05 114.05 378.21 114.12Z" fill="#263238"/>
<path d="M378.74 114.32C378.97 114.5 379.18 114.8 379.47 114.86C379.76 114.92 380.08 114.66 380.33 114.4C380.33 114.93 380.03 115.4 379.46 115.47C378.89 115.54 378.61 114.99 378.53 114.47C378.55 114.39 378.65 114.25 378.74 114.32Z" fill="#263238"/>
<path d="M372.6 114.13C372.6 114.13 372.53 114.13 372.53 114.2C372.53 115.06 372.28 116.04 371.53 116.2C372.44 116.25 372.69 115 372.6 114.13Z" fill="#263238"/>
<path d="M371.92 113.17C370.55 112.94 370.19 115.7 371.46 115.91C372.73 116.12 373.06 113.36 371.92 113.17Z" fill="#263238"/>
<path d="M371.32 113.28C371.08 113.39 370.83 113.63 370.57 113.62C370.31 113.61 370.08 113.27 369.93 112.96C369.93 112.96 369.93 112.96 369.88 112.96C369.8 113.48 369.88 114.05 370.39 114.22C370.9 114.39 371.24 113.96 371.39 113.45C371.47 113.39 371.41 113.23 371.32 113.28Z" fill="#263238"/>
<path d="M376.87 121.56C376.66 121.75 376.44 122.02 376.12 122.03C375.802 122.008 375.492 121.92 375.21 121.77C375.326 121.944 375.486 122.085 375.674 122.176C375.862 122.268 376.071 122.307 376.28 122.29C376.456 122.254 376.618 122.166 376.744 122.038C376.871 121.91 376.956 121.747 376.99 121.57C376.99 121.57 376.9 121.54 376.87 121.56Z" fill="#263238"/>
<path d="M373.63 118.09C373.63 118.09 373.32 119.34 373.25 119.95C373.25 119.95 373.39 120.05 373.59 120.08C374.096 120.23 374.633 120.237 375.143 120.101C375.653 119.965 376.116 119.692 376.48 119.31C376.53 119.31 376.48 119.19 376.4 119.22C375.577 119.661 374.634 119.825 373.71 119.69C373.71 119.52 374.32 117.55 374.22 117.53C373.748 117.522 373.277 117.579 372.82 117.7C373.4 115.06 374.4 112.53 374.94 109.9C374.941 109.881 374.935 109.862 374.925 109.847C374.915 109.831 374.899 109.819 374.882 109.812C374.864 109.806 374.845 109.805 374.826 109.81C374.808 109.815 374.792 109.825 374.78 109.84C373.631 112.513 372.75 115.293 372.15 118.14C372.09 118.48 373.38 118.16 373.63 118.09Z" fill="#263238"/>
<path d="M373.69 119.62C373.942 120.172 374.335 120.648 374.83 121C375.101 121.183 375.423 121.277 375.75 121.27C376.47 121.27 376.63 120.63 376.63 120.06C376.62 119.763 376.58 119.468 376.51 119.18C375.64 119.621 374.653 119.775 373.69 119.62Z" fill="#263238"/>
<path d="M374.83 121C375.101 121.183 375.423 121.277 375.75 121.27C376.47 121.27 376.63 120.63 376.63 120.06C376.268 119.992 375.893 120.047 375.567 120.218C375.24 120.388 374.981 120.664 374.83 121Z" fill="#FF9ABB"/>
<path d="M390.73 118.33C389.938 117.907 389.27 117.286 388.791 116.527C388.313 115.767 388.04 114.897 388 114C385.85 112.97 384.014 111.386 382.68 109.41C382.76 109.67 383.3 111.55 383.6 112.5C381.403 112.094 379.337 111.164 377.577 109.788C375.817 108.413 374.415 106.633 373.49 104.6C371.924 105.941 370.683 107.62 369.86 109.51C369.86 109.51 370.01 104.68 372.58 101.51C381.23 90.74 390.74 102.26 390.74 102.26C390.74 102.26 393.93 104.07 394.36 107.26C395.2 113.61 390.73 118.33 390.73 118.33Z" fill="#263238"/>
<path d="M377.62 111C378.865 111.739 380.213 112.288 381.62 112.63C379.413 111.951 377.442 110.665 375.93 108.92C375.287 108.174 374.74 107.351 374.3 106.47C373.788 105.543 373.465 104.523 373.35 103.47C373.35 103.39 373.23 103.4 373.23 103.47C373.227 104.542 373.403 105.606 373.75 106.62C374.142 107.606 374.708 108.514 375.42 109.3C376.064 109.989 376.801 110.585 377.61 111.07" fill="#263238"/>
<path d="M388.7 117.73C388.7 117.73 391.82 114.07 393.5 115.22C395.18 116.37 392.58 121.86 390.42 122.44C390.147 122.533 389.858 122.569 389.571 122.547C389.283 122.526 389.003 122.446 388.748 122.314C388.492 122.181 388.265 121.998 388.082 121.776C387.898 121.553 387.762 121.296 387.68 121.02L388.7 117.73Z" fill="#F7A9A0"/>
<path d="M392.72 116.77C392.72 116.77 392.72 116.77 392.72 116.83C392.016 117.102 391.376 117.518 390.842 118.052C390.308 118.586 389.892 119.226 389.62 119.93C389.72 119.792 389.848 119.677 389.996 119.593C390.144 119.508 390.309 119.457 390.478 119.442C390.648 119.427 390.819 119.448 390.98 119.505C391.141 119.561 391.287 119.652 391.41 119.77C391.41 119.77 391.41 119.86 391.36 119.85C391.11 119.744 390.834 119.717 390.569 119.774C390.304 119.832 390.063 119.97 389.88 120.17C389.571 120.504 389.303 120.873 389.08 121.27C389 121.39 388.77 121.27 388.83 121.15C389 119.25 390.69 116.77 392.72 116.77Z" fill="#263238"/>
<path d="M387.82 132.74C387.82 132.74 384.33 149.66 386.38 173.04C390.24 217.13 401.18 282.27 403.81 286.59C407.81 293.22 449.75 297.48 449.75 297.48C441.073 260.593 430.176 224.263 417.12 188.69C417.12 188.69 408.52 163.87 405.47 157.25C394 132.45 387.82 132.74 387.82 132.74Z" fill="#EBEBEB"/>
<path d="M427.1 224.85C423.251 226.034 419.334 226.983 415.37 227.69C409.82 228.59 404.21 228.94 402.62 229.17C402.47 229.17 402.48 229.67 402.62 229.67C404.73 229.6 411.21 229.21 415.45 228.53C419.327 227.864 423.138 226.861 426.84 225.53C427.01 226.71 427.15 227.63 427.34 228.8C423.55 230.19 416.2 232.72 403.73 233.12C403.62 232.63 403.26 230 403.04 229.3C403.04 229.19 402.55 229.25 402.56 229.42C402.56 230.14 403.3 236.48 403.5 237.76C403.99 240.92 405.63 249.76 406.69 251.4C409.1 255.02 416.69 253.8 418.82 253.48C420.95 253.16 427.75 252.27 429.9 249.38C431.04 247.83 430.17 240.56 428.9 234.21C428.32 231.21 427.29 224.88 427.1 224.85ZM419.26 252.62C412.53 253.71 409.38 252.78 408.12 251.54C406.64 250.1 406.12 247.26 405.48 244.13C405.01 241.67 403.85 233.91 403.81 233.75C411.874 233.885 419.89 232.483 427.43 229.62C428.04 233.29 428.52 236.22 429.12 239.9C429.55 242.56 430.12 247.04 429 248.81C428.08 250.29 424.12 251.83 419.26 252.62Z" fill="#A6A6A6"/>
<path d="M416.33 227C417.58 230.64 416.21 236.48 419.08 236.39C421.64 236.31 422.19 232.17 422.19 232.17C422.19 232.17 423.07 237.04 425.79 236.17C428.51 235.3 428.2 230.64 428.2 230.64C428.2 230.64 428.75 234.72 431.4 233.64C434.05 232.56 434.51 228.57 434.51 228.57C434.51 228.57 435.51 229.63 437.01 228.04C439.21 225.76 438.27 218.98 436.95 215.55C435.63 212.12 428.22 200.55 427.05 198.82L405 207.16C405 207.16 404.56 214.34 404.77 218.01C404.98 221.68 409.06 233.57 412.08 232.76C415.1 231.95 412.08 223.6 411.79 221.39C411.5 219.18 411.96 218.74 412.86 219.64C413.45 220.22 415.78 225.36 416.33 227Z" fill="#F7A9A0"/>
<path d="M422.12 232C422.49 226.18 421.64 223.57 418.89 218.54C418.84 218.44 418.97 218.34 419.04 218.43C422.18 223.12 423.71 226.24 422.4 232.03C422.34 232.26 422.1 232.22 422.12 232Z" fill="#263238"/>
<path d="M428.13 230.86C427.98 224.79 427.13 221.95 424.59 216.47C424.59 216.39 424.69 216.32 424.73 216.4C427.63 221.57 429.08 224.72 428.43 230.81C428.4 231.08 428.13 231.14 428.13 230.86Z" fill="#263238"/>
<path d="M434.46 228.51C433.9 222.64 433.05 219.51 429.95 214.51C429.939 214.498 429.93 214.484 429.925 214.469C429.92 214.454 429.918 214.438 429.92 214.422C429.921 214.406 429.926 214.39 429.935 214.376C429.943 214.363 429.955 214.351 429.968 214.342C429.981 214.333 429.997 214.327 430.013 214.325C430.029 214.322 430.045 214.323 430.06 214.328C430.076 214.332 430.09 214.34 430.102 214.351C430.114 214.362 430.124 214.375 430.13 214.39C433.79 219.19 434.87 223.12 434.64 228.51C434.62 228.84 434.5 228.88 434.46 228.51Z" fill="#263238"/>
<path d="M395.57 139.91C408.65 157.66 425.84 195.14 428.09 201.14C429.62 205.2 406.43 213.45 405.8 210.53C405.01 206.8 392.75 159.98 389.48 142.63C387.68 133.07 392.34 135.52 395.57 139.91Z" fill="#F7A9A0"/>
<path d="M401 204L428.14 197.21C428.14 197.21 403.29 148.88 396.43 139.87C389.43 130.71 388.17 135.87 389.43 145.69C390.86 156.29 401 204 401 204Z" fill="#EBEBEB"/>
<path d="M424.45 194.26C422.6 194.48 420.76 194.97 418.94 195.36C417.12 195.75 415.28 196.16 413.46 196.58C409.81 197.42 406.16 198.28 402.56 199.3C402.545 199.306 402.531 199.316 402.522 199.329C402.513 199.343 402.508 199.359 402.508 199.375C402.508 199.391 402.513 199.407 402.522 199.421C402.531 199.434 402.545 199.444 402.56 199.45C406.25 198.81 409.91 197.99 413.56 197.15C415.35 196.74 417.13 196.31 418.91 195.88C420.69 195.45 422.66 195.06 424.46 194.45C424.48 194.442 424.497 194.429 424.508 194.411C424.52 194.393 424.525 194.372 424.524 194.351C424.523 194.33 424.515 194.31 424.502 194.294C424.489 194.277 424.47 194.265 424.45 194.26Z" fill="#A6A6A6"/>
<path d="M403.92 203.26C403.41 203.26 401.34 203.49 401.26 203.52C401.26 203.26 399.91 194.62 399.55 192.83C398.85 189.33 398.1 185.83 397.37 182.34C395.88 175.27 394.3 168.22 392.76 161.16C391.89 157.16 390.99 153.23 390.02 149.28C390.02 149.19 389.86 149.23 389.87 149.33C390.28 151.64 390.71 153.94 391.16 156.25C390.73 155.25 390.28 154.25 389.89 153.25C389.89 153.16 389.7 153.25 389.74 153.25C390.15 154.25 390.5 155.36 390.88 156.41C391.08 156.97 391.3 157.52 391.53 158.06C392.35 162.23 393.21 166.39 394.06 170.55C395.5 177.63 396.92 184.72 398.48 191.78C398.91 193.72 400.79 204.08 400.86 204.06C400.93 204.04 403.51 203.49 403.99 203.29C404 203.35 404 203.25 403.92 203.26Z" fill="#A6A6A6"/>
<path d="M378.15 134.06C378.15 134.06 370.7 143.88 368.51 174.79C366.14 208.14 361.08 280.4 360.69 282.96C360.3 285.52 349.86 291.5 349.86 291.5L365.93 169.94C365.93 169.94 362.93 163.94 363.47 159.53C364.13 153.65 375.27 135.37 378.15 134.06Z" fill="#EBEBEB"/>
<path d="M370.3 144.74C369.55 145.74 368.88 146.91 368.22 148.03L368.34 147.63C368.53 147.05 368.68 146.45 368.82 145.85C368.82 145.85 368.77 145.79 368.75 145.85C368.54 146.43 368.33 147.02 368.17 147.61L367.87 148.61C367.47 149.27 366.19 152.08 365.87 152.75C365.82 152.84 365.97 152.92 366.01 152.83C366.33 152.14 367.92 149.49 368.27 148.83C368.96 147.46 369.74 146.13 370.43 144.75L370.3 144.74Z" fill="#A6A6A6"/>
<path d="M378.15 134.06C375.69 137.267 373.213 140.463 370.72 143.65V143.39L372.65 145.12L372.8 145.26L372.66 145.42L368.66 149.96L368.72 149.81C368.72 153.97 368.72 158.14 368.72 162.3C368.72 166.46 368.62 170.63 368.51 174.79C368.39 170.63 368.33 166.46 368.29 162.3C368.25 158.14 368.24 153.97 368.29 149.81V149.72L368.34 149.65L372.34 145.14V145.43L370.45 143.67L370.32 143.55L370.43 143.41C372.983 140.27 375.557 137.153 378.15 134.06Z" fill="#A6A6A6"/>
<path d="M387.8 132.71C389.133 136.55 390.447 140.4 391.74 144.26L391.81 144.46H391.6L387.86 145.19L388 145L390.12 150.23V150.3C389.59 154.3 388.98 158.4 388.4 162.44C387.82 166.48 387.17 170.53 386.49 174.57C386.95 170.503 387.447 166.443 387.98 162.39C388.53 158.33 389.06 154.28 389.66 150.23V150.35L387.58 145.11L387.48 144.86H387.74L391.49 144.17L391.34 144.42C390.16 140.5 389 136.6 387.8 132.71Z" fill="#A6A6A6"/>
<path d="M451.71 416.5H334.45V431.43H451.71V416.5Z" fill="#455A64"/>
<path d="M430.35 387.42H329.13V402.35H430.35V387.42Z" fill="#455A64"/>
<path d="M334.75 443.08H326.15L335.02 402.35H352.5L334.75 443.08Z" fill="#455A64"/>
<path d="M335.03 402.34H352.5L348.06 412.53H332.81L335.03 402.34Z" fill="#37474F"/>
<path d="M424.75 443.08H433.35L424.47 402.35H406.99L424.75 443.08Z" fill="#455A64"/>
<path d="M426.69 412.53H411.43L406.99 402.34H424.47L426.69 412.53Z" fill="#37474F"/>
</svg>
